<svg xmlns="http://www.w3.org/2000/svg" xmlns:xlink="http://www.w3.org/1999/xlink" fill="none" version="1.1" width="102" height="26" viewBox="0 0 102 26"><defs><clipPath id="master_svg0_213_17978"><rect x="0" y="0" width="102" height="26" rx="0"/></clipPath></defs><g clip-path="url(#master_svg0_213_17978)"><g><g><g><g><g><path d="M0.8854026794433594,7.906120060882569L0.8854026794433594,18.093910060882568C0.8854026794433594,18.71841006088257,1.2485226794433593,19.342810060882567,1.7707626794433593,19.653110060882568L10.60396267944336,24.74691006088257C11.175202679443359,25.057110060882568,11.85240267944336,25.057110060882568,12.42360267944336,24.74691006088257L21.25680267944336,19.653110060882568C21.828002679443358,19.342810060882567,22.142202679443358,18.71841006088257,22.142202679443358,18.093910060882568L22.142202679443358,7.906120060882569C22.142202679443358,7.281630060882568,21.77910267944336,6.657140060882568,21.25680267944336,6.346940060882568L12.41960267944336,1.2530630608825684C11.848402679443359,0.9428590608825683,11.17110267944336,0.9428590608825683,10.59988267944336,1.2530630608825684L1.7666826794433592,6.346940060882568C1.1954826794433595,6.657140060882568,0.8854026794433594,7.281630060882568,0.8854026794433594,7.906120060882569Z" fill="#213147" fill-opacity="1"/></g><g><g><g><g><path d="M13.459948079833984,14.97523911557007L12.211467079833984,18.407896115570068C12.158427579833985,18.509936115570067,12.158427579833985,18.616056115570068,12.211467079833984,18.71809611557007L14.394268079833985,24.64462611557007L16.887148079833985,23.187486115570067L13.872028079833985,14.97523911557007C13.823068079833984,14.767075515570069,13.561948079833984,14.767075515570069,13.459948079833984,14.97523911557007Z" fill="#12AAFF" fill-opacity="1"/></g></g><g><g><path d="M15.95285978881836,9.155047685882568C15.899819788818359,8.946884485882569,15.642779788818359,8.946884485882569,15.536699788818359,9.155047685882568L14.28822008881836,12.587705685882568C14.23518048881836,12.689745685882569,14.23518048881836,12.795865685882568,14.28822008881836,12.897905685882568L17.821499788818358,22.62032568588257L20.31437978881836,21.16322568588257L15.95285978881836,9.155047685882568Z" fill="#12AAFF" fill-opacity="1"/></g></g></g></g><g><g><path d="M11.48527650756836,1.6162926390075683C11.538276507568359,1.6162926390075683,11.58727650756836,1.6162926390075683,11.640276507568359,1.6693626390075684L21.19967650756836,7.179562639007568C21.30167650756836,7.232622639007569,21.35477650756836,7.334662639007568,21.35477650756836,7.4897626390075684L21.35477650756836,18.51015263900757C21.35477650756836,18.61225263900757,21.30167650756836,18.771352639007567,21.19967650756836,18.820352639007567L11.640276507568359,24.330552639007568C11.58727650756836,24.38365263900757,11.538276507568359,24.38365263900757,11.48527650756836,24.38365263900757C11.432176507568359,24.38365263900757,11.38327650756836,24.38365263900757,11.330176507568359,24.330552639007568L1.7707565075683593,18.820352639007567C1.6687565075683595,18.76735263900757,1.6157165075683593,18.66525263900757,1.6157165075683593,18.51015263900757L1.6157165075683593,7.4897626390075684C1.6157165075683593,7.387722639007569,1.6687565075683595,7.228542639007569,1.7707565075683593,7.179562639007568L11.330176507568359,1.6693526390075684C11.37917650756836,1.6162926390075683,11.432176507568359,1.6162926390075683,11.48527650756836,1.6162926390075683ZM11.48527650756836,0.00405264296093836C11.122076507568359,0.00405264296093836,10.807976507568359,0.10609363900756837,10.497876507568359,0.26527663900756837L0.9384365075683594,5.775482639007568C0.3141965075683594,6.138742639007568,-0.048923492431640625,6.763232639007568,-0.048923492431640625,7.4897626390075684L-0.048923492431640625,18.51015263900757C-0.048923492431640625,19.18775263900757,0.3141965075683594,19.861152639007567,0.9384365075683594,20.22445263900757L10.497876507568359,25.734652639007567C10.807976507568359,25.88975263900757,11.122076507568359,25.99585263900757,11.48527650756836,25.99585263900757C11.848376507568359,25.99585263900757,12.162476507568359,25.89385263900757,12.472576507568359,25.734652639007567L22.03207650756836,20.22445263900757C22.65627650756836,19.861152639007567,23.01937650756836,19.23675263900757,23.01937650756836,18.51015263900757L23.01937650756836,7.4897626390075684C23.01937650756836,6.812212639007568,22.65627650756836,6.138742639007568,22.03207650756836,5.775482639007568L12.521576507568358,0.26527663900756837C12.21147650756836,0.11017463900756835,11.897276507568359,0.004052639007568359,11.53417650756836,0.004052639007568359L11.48527650756836,0.00405264296093836Z" fill="#9DCCED" fill-opacity="1"/></g></g><g><path d="M5.197963714599609,22.61610748275757L6.07924371459961,20.22426748275757L7.845883714599609,21.681407482757567L6.185323714599609,23.24059748275757L5.197963714599609,22.61610748275757Z" fill="#213147" fill-opacity="1"/></g><g><g><path d="M10.70592424194336,6.710229396820068L8.262004241943359,6.710229396820068C8.10696424194336,6.710229396820068,7.898884241943359,6.812270396820068,7.845844241943359,6.971453396820069L2.6520042419433594,21.21222939682007L5.144884241943359,22.669429396820068L10.860964241943359,7.020433396820068C10.91400424194336,6.865331396820069,10.80792424194336,6.710229396820068,10.65288424194336,6.710229396820068L10.70592424194336,6.710229396820068Z" fill="#FFFFFF" fill-opacity="1"/></g><g><path d="M14.91244988647461,6.710137231195068L12.46852988647461,6.710137231195068C12.31348988647461,6.710137231195068,12.10540988647461,6.812178131195068,12.052369886474608,6.971361131195068L6.132289886474609,23.187657131195067L8.625169886474609,24.644857131195067L15.06748988647461,6.971361131195068C15.120529886474609,6.816259131195069,15.01444988647461,6.661157131195068,14.859409886474609,6.661157131195068L14.91244988647461,6.710137231195068Z" fill="#FFFFFF" fill-opacity="1"/></g></g></g><g><g><g><path d="M33.30915116577148,9.67331838607788C33.57027116577149,9.67331838607788,33.77835116577148,9.726379786077882,33.93339116577148,9.82842038607788C34.08843116577148,9.93046138607788,34.24347116577148,10.13862538607788,34.40259116577148,10.39984938607788L37.572751165771486,16.11821838607788C37.62579116577149,16.17127838607788,37.62579116577149,16.22025838607788,37.572751165771486,16.273318386077882C37.572751165771486,16.32637838607788,37.51971116577148,16.32637838607788,37.417711165771486,16.32637838607788L36.22227116577149,16.32637838607788C36.120271165771484,16.32637838607788,36.06723116577148,16.273318386077882,36.014191165771486,16.224338386077882L35.33283116577148,14.97535838607788L30.865231165771483,14.97535838607788L30.187951165771484,16.224338386077882C30.134911165771484,16.32637838607788,30.085951165771483,16.32637838607788,29.979871165771485,16.32637838607788L28.731391165771484,16.32637838607788C28.629390665771485,16.32637838607788,28.576351165771484,16.32637838607788,28.576351165771484,16.273318386077882C28.576351165771484,16.22025838607788,28.576351165771484,16.17127838607788,28.576351165771484,16.11821838607788L31.693471165771484,10.39984938607788C31.848511165771484,10.089645386077882,32.00355116577148,9.930462386077881,32.162671165771485,9.828421386077881C32.32179116577149,9.726380386077881,32.472751165771484,9.673319008885882,32.68083116577149,9.673319008885882L33.252031165771484,9.673319008885882L33.30915116577148,9.67331838607788ZM31.436431165771484,13.885568386077882L34.70859116577149,13.885568386077882L33.20307116577148,11.077398386077881C33.15003116577149,11.024338386077881,33.15003116577149,11.024338386077881,33.10107116577149,11.024338386077881L33.048031165771484,11.024338386077881C32.99499116577148,11.024338386077881,32.94603116577149,11.024338386077881,32.94603116577149,11.077398386077881L31.436431165771484,13.885568386077882Z" fill="#FFFFFF" fill-opacity="1"/></g><g><path d="M44.480120931396485,9.67331838607788C45.20636093139648,9.67331838607788,45.728600931396485,9.82842038607788,46.038680931396485,10.19168538607788C46.348760931396484,10.501889386077881,46.507880931396485,11.024338386077881,46.507880931396485,11.64882838607788L46.507880931396485,12.167198386077882C46.507880931396485,12.738628386077881,46.40588093139648,13.15494838607788,46.197800931396486,13.465158386077881C45.989720931396484,13.77535838607788,45.62660093139648,13.983518386077881,45.10844093139649,14.089648386077881L46.72004093139648,16.11821838607788C46.773080931396485,16.17127838607788,46.773080931396485,16.22025838607788,46.773080931396485,16.273318386077882C46.773080931396485,16.32637838607788,46.72004093139648,16.37535838607788,46.618040931396486,16.37535838607788L45.369560931396485,16.37535838607788C45.26756093139648,16.37535838607788,45.214520931396486,16.37535838607788,45.214520931396486,16.322298386077883C45.16148093139648,16.322298386077883,45.16148093139648,16.26923838607788,45.11252093139648,16.22025838607788L43.607000931396485,14.24474838607788L40.54292093139649,14.24474838607788L40.54292093139649,16.16719838607788C40.54292093139649,16.322298386077883,40.489880931396485,16.37535838607788,40.334840931396485,16.37535838607788L39.29443993139648,16.37535838607788C39.13940043139648,16.37535838607788,39.086360931396484,16.322298386077883,39.086360931396484,16.16719838607788L39.086360931396484,9.983522386077881C39.086360931396484,9.77535938607788,39.18836093139648,9.67331838607788,39.396439931396486,9.67331838607788L44.541320931396484,9.67331838607788L44.480120931396485,9.67331838607788ZM40.53068093139648,13.101888386077881L44.165960931396484,13.101888386077881C44.47604093139648,13.101888386077881,44.73716093139649,13.048828386077881,44.84324093139649,12.893728386077882C44.998280931396486,12.738628386077881,45.05132093139648,12.53045838607788,45.05132093139648,12.26923838607788L45.05132093139648,11.852908386077882C45.05132093139648,11.54270838607788,44.998280931396486,11.334538386077881,44.84324093139649,11.22841838607788C44.68820093139649,11.073318386077881,44.480120931396485,11.02025838607788,44.165960931396484,11.02025838607788L40.632680931396486,11.02025838607788C40.53068093139648,11.02025838607788,40.53068093139648,11.073318386077881,40.53068093139648,11.122298386077881L40.53068093139648,13.101888386077881Z" fill="#FFFFFF" fill-opacity="1"/></g><g><path d="M54.50881995483398,9.67331838607788C55.186099954833985,9.67331838607788,55.651219954833984,9.82842038607788,55.912349954833985,10.08964438607788C56.17346995483398,10.35086938607788,56.32849995483399,10.767198386077881,56.32849995483399,11.28555838607788L56.32849995483399,11.754948386077881C56.32849995483399,12.27331838607788,56.12042995483398,12.68964838607788,55.70425995483399,12.95086838607788C56.120419954833984,13.21208838607788,56.38153995483398,13.62841838607788,56.38153995483398,14.199848386077882L56.38153995483398,14.771278386077881C56.38153995483398,15.032498386077881,56.32849995483399,15.240668386077882,56.279539954833986,15.448828386077881C56.230579954833985,15.656988386077881,56.124499954833986,15.812098386077881,56.01841995483399,15.96719838607788C55.86337995483399,16.12229838607788,55.70833995483398,16.22841838607788,55.500259954833986,16.27739838607788C55.29217995483398,16.33045838607788,55.031059954833985,16.37943838607788,54.720979954833986,16.37943838607788L49.057938954833986,16.37943838607788C48.84985995483398,16.37943838607788,48.747859954833984,16.27739838607788,48.747859954833984,16.06923838607788L48.747859954833984,9.98760438607788C48.747859954833984,9.779441386077881,48.84985995483398,9.67740026607788,49.057938954833986,9.67740026607788L54.565939954833986,9.67740026607788L54.50881995483398,9.67740026607788L54.50881995483398,9.67331838607788ZM50.19626995483399,12.428418386077881L54.09266995483399,12.428418386077881C54.40273995483398,12.428418386077881,54.610819954833985,12.375358386077881,54.71690995483399,12.27331838607788C54.822989954833986,12.17127838607788,54.87194995483399,12.065158386077881,54.87194995483399,11.85698838607788L54.87194995483399,11.54678838607788C54.87194995483399,11.33862838607788,54.818909954833984,11.18351838607788,54.71690995483399,11.130458386077882C54.61490995483398,11.028418386077881,54.40682995483398,10.97535838607788,54.198749954833985,10.97535838607788L50.302349954833986,10.97535838607788C50.20034995483398,10.97535838607788,50.20034995483398,11.028418386077881,50.20034995483398,11.077398386077881L50.20034995483398,12.428418386077881L50.19626995483399,12.428418386077881ZM50.19626995483399,13.469238386077881L50.19626995483399,14.87331838607788C50.19626995483399,14.97535838607788,50.24930995483398,14.97535838607788,50.298269954833984,14.97535838607788L54.194669954833984,14.97535838607788C54.45578995483398,14.97535838607788,54.610819954833985,14.92229838607788,54.71281995483398,14.820258386077882C54.814819954833986,14.718218386077881,54.867869954833985,14.55902838607788,54.867869954833985,14.403928386077881L54.867869954833985,14.040668386077881C54.867869954833985,13.83249838607788,54.814819954833986,13.677398386077881,54.71281995483398,13.57127838607788C54.610819954833985,13.465158386077881,54.40273995483398,13.416178386077881,54.035539954833986,13.416178386077881L50.14321995483398,13.416178386077881L50.19626995483399,13.469238386077881Z" fill="#FFFFFF" fill-opacity="1"/></g><g><path d="M59.910707630615235,9.67331838607788C60.065747630615235,9.67331838607788,60.11878763061524,9.72637968607788,60.11878763061524,9.88148238607788L60.11878763061524,16.11821838607788C60.11878763061524,16.273318386077882,60.065747630615235,16.32637838607788,59.910707630615235,16.32637838607788L58.87030663061523,16.32637838607788C58.71526463061524,16.32637838607788,58.662227630615234,16.273318386077882,58.662227630615234,16.11821838607788L58.662227630615234,9.88148238607788C58.662227630615234,9.72637968607788,58.71526963061523,9.67331838607788,58.87030663061523,9.67331838607788L59.910707630615235,9.67331838607788Z" fill="#FFFFFF" fill-opacity="1"/></g><g><path d="M69.93938302124023,9.67331838607788C70.09442302124023,9.67331838607788,70.14746302124024,9.72637968607788,70.14746302124024,9.88148238607788L70.14746302124024,10.816178386077882C70.14746302124024,10.97127838607788,70.09442302124023,11.024338386077881,69.93938302124023,11.024338386077881L66.92426302124024,11.024338386077881L66.92426302124024,16.11821838607788C66.92426302124024,16.273318386077882,66.87122302124024,16.32637838607788,66.71618302124024,16.32637838607788L65.67578302124024,16.32637838607788C65.52074302124024,16.32637838607788,65.46770302124024,16.273318386077882,65.46770302124024,16.11821838607788L65.46770302124024,11.024338386077881L62.45258202124023,11.024338386077881C62.29754002124024,11.024338386077881,62.244503021240234,10.97127838607788,62.244503021240234,10.816178386077882L62.244503021240234,9.88148238607788C62.244503021240234,9.72637968607788,62.29754502124023,9.67331838607788,62.45258202124023,9.67331838607788L69.88226302124023,9.67331838607788L69.93938302124023,9.67331838607788Z" fill="#FFFFFF" fill-opacity="1"/></g><g><path d="M77.47511604858398,9.67331838607788C78.20135604858399,9.67331838607788,78.72359604858399,9.82842038607788,79.03367604858398,10.19168538607788C79.34375604858398,10.501889386077881,79.50287604858399,11.024338386077881,79.50287604858399,11.64882838607788L79.50287604858399,12.167198386077882C79.50287604858399,12.738628386077881,79.40087604858398,13.15494838607788,79.19279604858399,13.465158386077881C78.98471604858399,13.77535838607788,78.62159604858398,13.983518386077881,78.10343604858399,14.089648386077881L79.71503604858398,16.11821838607788C79.76807604858398,16.17127838607788,79.76807604858398,16.22025838607788,79.76807604858398,16.273318386077882C79.76807604858398,16.32637838607788,79.71503604858398,16.37535838607788,79.61303604858398,16.37535838607788L78.36455604858398,16.37535838607788C78.26255604858399,16.37535838607788,78.20951604858398,16.37535838607788,78.20951604858398,16.322298386077883C78.15647604858398,16.322298386077883,78.15647604858398,16.26923838607788,78.10751604858399,16.22025838607788L76.60199604858398,14.24474838607788L73.53791604858398,14.24474838607788L73.53791604858398,16.16719838607788C73.53791604858398,16.322298386077883,73.48487604858398,16.37535838607788,73.32983604858399,16.37535838607788L72.28943504858398,16.37535838607788C72.13439304858399,16.37535838607788,72.08135604858398,16.322298386077883,72.08135604858398,16.16719838607788L72.08135604858398,9.983522386077881C72.08135604858398,9.77535938607788,72.18335604858399,9.67331838607788,72.39143504858399,9.67331838607788L77.53631604858398,9.67331838607788L77.47511604858398,9.67331838607788ZM73.52567604858399,13.101888386077881L77.16095604858398,13.101888386077881C77.47102604858398,13.101888386077881,77.73215604858399,13.048828386077881,77.83822604858399,12.893728386077882C77.99327604858398,12.738628386077881,78.04630604858399,12.53045838607788,78.04630604858399,12.26923838607788L78.04630604858399,11.852908386077882C78.04630604858399,11.54270838607788,77.99326604858399,11.334538386077881,77.83822604858399,11.22841838607788C77.68318604858399,11.073318386077881,77.47510604858398,11.02025838607788,77.16095604858398,11.02025838607788L73.62767604858398,11.02025838607788C73.52567604858399,11.02025838607788,73.52567604858399,11.073318386077881,73.52567604858399,11.122298386077881L73.52567604858399,13.101888386077881Z" fill="#FFFFFF" fill-opacity="1"/></g><g><path d="M82.82812731811524,9.67331838607788C82.98316731811524,9.67331838607788,83.03620731811523,9.72637968607788,83.03620731811523,9.88148238607788L83.03620731811523,13.677398386077881C83.03620731811523,13.93862838607788,83.03620731811523,14.14678838607788,83.08924731811524,14.30188838607788C83.14228731811524,14.456988386077882,83.19124731811523,14.612098386077882,83.29732731811524,14.718218386077881C83.40340731811523,14.82433838607788,83.50540731811523,14.87331838607788,83.66044731811523,14.92637838607788C83.81548731811523,14.97943838607788,84.02356731811524,14.97943838607788,84.28468731811523,14.97943838607788L86.93668731811523,14.97943838607788C87.19780731811524,14.97943838607788,87.40588731811523,14.97943838607788,87.56092731811523,14.92637838607788C87.71597731811524,14.87331838607788,87.87101731811524,14.82433838607788,87.92404731811523,14.718218386077881C88.02604731811523,14.61617838607788,88.07908731811523,14.456988386077882,88.13212731811524,14.30188838607788C88.18517731811524,14.14678838607788,88.18517731811524,13.93862838607788,88.18517731811524,13.677398386077881L88.18517731811524,9.88148238607788C88.18517731811524,9.72637968607788,88.23821731811523,9.67331838607788,88.39325731811523,9.67331838607788L89.43365731811524,9.67331838607788C89.58869731811524,9.67331838607788,89.64173731811523,9.72637968607788,89.64173731811523,9.88148238607788L89.64173731811523,13.83249838607788C89.64173731811523,14.30188838607788,89.58869731811524,14.66515838607788,89.48669731811523,14.97535838607788C89.38469731811523,15.28556838607788,89.22558731811523,15.546788386077882,89.01749731811523,15.754948386077881C88.80941731811524,15.96311838607788,88.54829731811523,16.11821838607788,88.18518731811524,16.17127838607788C87.82206731811523,16.273318386077882,87.45893731811523,16.32637838607788,86.93669731811524,16.32637838607788L84.18269731811523,16.32637838607788C83.71349731811523,16.32637838607788,83.29733731811524,16.273318386077882,82.93421731811523,16.17127838607788C82.62413731811523,16.06923838607788,82.30997831811523,15.910058386077882,82.10189931811523,15.754948386077881C81.89382031811523,15.546788386077882,81.73877831811524,15.28556838607788,81.63269931811523,14.97535838607788C81.53069931811524,14.66515838607788,81.47765731811523,14.248828386077882,81.47765731811523,13.83249838607788L81.47765731811523,9.88148238607788C81.47765731811523,9.726380386077881,81.53069931811524,9.673319008885882,81.68573631811523,9.673319008885882L82.72613731811524,9.673319008885882L82.82812731811524,9.67331838607788Z" fill="#FFFFFF" fill-opacity="1"/></g><g><path d="M93.73801114624024,9.673319008885882C93.89306114624023,9.673319008885882,93.99913114624023,9.673319008885882,94.10113114624023,9.726380386077881C94.20313114624024,9.726380386077881,94.30921114624023,9.779441386077881,94.36225114624024,9.828421386077881C94.41529114624024,9.88148238607788,94.51729114624024,9.930462386077881,94.57033114624024,10.03658438607788C94.62337114624023,10.13862538607788,94.67233114624024,10.24474838607788,94.77841114624023,10.39984938607788L96.75313114624024,14.97535838607788C96.80617114624023,15.028418386077881,96.80617114624023,15.077398386077881,96.90817114624024,15.077398386077881L97.01017114624024,15.077398386077881C97.06322114624024,15.077398386077881,97.11217114624023,15.024338386077881,97.16521114624024,14.97535838607788L99.13993114624023,10.39984938607788C99.19297114624024,10.244747386077881,99.24193114624023,10.13862438607788,99.34802114624023,10.03658438607788C99.40106114624024,9.93454338607788,99.45001114624023,9.88148238607788,99.55610114624024,9.82842038607788C99.60914114624023,9.77535938607788,99.71114114624024,9.72637968607788,99.81721114624024,9.72637968607788C99.92329114624023,9.72637968607788,100.02530114624024,9.67331838607788,100.18033114624023,9.67331838607788L101.22073114624024,9.67331838607788C101.53081114624024,9.67331838607788,101.79193114624023,9.72637968607788,101.89802114624024,9.88148238607788C102.00003114624023,10.03658438607788,102.05303114624023,10.29780838607788,102.05303114624023,10.66107338607788L102.05303114624023,16.11821838607788C102.05303114624023,16.273318386077882,102.00003114624023,16.32637838607788,101.84497114624024,16.32637838607788L100.85761114624023,16.32637838607788C100.70257114624023,16.32637838607788,100.64953114624024,16.273318386077882,100.64953114624024,16.11821838607788L100.64953114624024,11.130458386077882Q100.64953114624024,11.077398386077881,100.59649114624024,11.028418386077881L100.49449114624024,11.028418386077881Q100.44145114624024,11.028418386077881,100.39249114624023,11.081478386077881L98.47080114624023,15.34270838607788C98.41776114624024,15.497808386077882,98.31576114624023,15.65290838607788,98.20969114624023,15.75902838607788C98.10361114624024,15.86515838607788,98.05465114624023,15.96719838607788,97.94857114624024,16.06923838607788C97.84657114624024,16.12229838607788,97.74049114624023,16.224338386077882,97.63849114624023,16.224338386077882C97.53649114624024,16.27739838607788,97.37737114624024,16.27739838607788,97.22233114624024,16.27739838607788L96.75313114624024,16.27739838607788C96.59809114624024,16.27739838607788,96.44305114624024,16.27739838607788,96.33697114624023,16.224338386077882C96.23090114624023,16.17127838607788,96.12889114624024,16.12229838607788,96.02689114624023,16.06923838607788C95.92489114624024,16.016178386077883,95.87185114624023,15.91413838607788,95.76577114624024,15.75902838607788C95.66377114624024,15.656988386077881,95.61073114624024,15.497808386077882,95.50466114624024,15.34270838607788L93.58297114624024,11.081478386077881C93.58297114624024,11.028418386077881,93.52993114624023,11.028418386077881,93.48097114624024,11.028418386077881L93.37897114624023,11.028418386077881C93.32593114624024,11.028418386077881,93.32593114624024,11.081478386077881,93.32593114624024,11.130458386077882L93.32593114624024,16.12229838607788C93.32593114624024,16.27739838607788,93.27289114624024,16.33045838607788,93.11785114624024,16.33045838607788L92.12641514624023,16.33045838607788C91.97137314624024,16.33045838607788,91.91833114624023,16.27739838607788,91.91833114624023,16.12229838607788L91.91833114624023,10.66107438607788C91.91833114624023,10.297809386077882,91.97137314624024,10.03658438607788,92.07337314624023,9.88148238607788C92.17537314624023,9.726380386077881,92.43648914624023,9.673319008885882,92.75065714624023,9.673319008885882L93.79106114624024,9.673319008885882L93.73801114624024,9.673319008885882Z" fill="#FFFFFF" fill-opacity="1"/></g></g></g></g></g></g></g></svg>