<?xml version="1.0" standalone="no"?><!DOCTYPE svg PUBLIC "-//W3C//DTD SVG 1.1//EN" "http://www.w3.org/Graphics/SVG/1.1/DTD/svg11.dtd"><svg t="1686794251428" class="icon" viewBox="0 0 1024 1024" version="1.1" xmlns="http://www.w3.org/2000/svg" p-id="20577" xmlns:xlink="http://www.w3.org/1999/xlink" width="128" height="128"><path d="M627.345139 469.13765l75.193074-127.583784 202.674703 315.672271 0.094858 60.563077-0.664005-416.870984a31.376052 31.376052 0 0 0-14.520545-25.013281L525.234332 66.028348a32.164102 32.164102 0 0 0-27.880906 0.131341 31.755483 31.755483 0 0 0-3.268947 1.88986l-1.269635 0.802643-354.191848 205.243162-1.379087 0.620224a32.229773 32.229773 0 0 0-5.231774 3.050044 31.303085 31.303085 0 0 0-12.616092 19.927442 32.244366 32.244366 0 0 0-0.452399 3.684861l0.554554 339.707787 188.781679-292.599928c23.765535-38.796853 75.550615-51.296197 123.621645-50.617598l56.41852 1.459351-332.440217 533.130202 39.190878 22.561571 336.424246-555.15911 148.700596-0.53996-335.555932 569.146992 139.849632 80.483222 16.709572 9.609828a32.105728 32.105728 0 0 0 22.525086 0.445102l370.018512-214.429778-70.778536 40.993177z m28.690846 413.193419L514.79997 660.662909l86.211176-146.292667 185.483545 292.351838z" fill="#2D374B" p-id="20578"></path><path d="M514.79997 660.662909l141.236015 221.660863 130.466003-75.608989-185.476249-292.344541z" fill="#28A0F0" p-id="20579"></path><path d="M905.329664 717.796511l-0.094858-60.563078L702.560103 341.561162 627.323249 469.130353l195.655224 316.431133 70.778536-40.993176a31.376052 31.376052 0 0 0 11.579952-22.831551z" fill="#28A0F0" p-id="20580"></path><path d="M56.001824 774.930113l99.899891 57.56411 332.440217-533.130202-56.41852-1.459352c-48.071031-0.678598-99.85611 11.813448-123.621645 50.617599l-188.781679 292.599928-63.48178 97.579522v36.257582z" fill="#FFFFFF" p-id="20581"></path><path d="M680.210139 299.356724l-148.6933 0.53996-336.424246 555.159109 117.587228 67.706602 31.974386-54.236789z" fill="#FFFFFF" p-id="20582"></path><path d="M967.96502 298.590565a94.711897 94.711897 0 0 0-44.459136-76.141652L553.837616 9.865215a96.156655 96.156655 0 0 0-84.817495 0c-3.086528 1.554209-359.496589 208.264018-359.496589 208.264018a94.97458 94.97458 0 0 0-14.155707 8.376676 93.989518 93.989518 0 0 0-39.402484 71.902237v440.271681l63.481779-97.579522-0.488882-339.693193a31.558471 31.558471 0 0 1 13.06849-23.612303c1.678254-1.203965 364.17381-211.029489 365.326698-211.605933a32.164102 32.164102 0 0 1 27.880906-0.131341l364.888892 209.891195a31.376052 31.376052 0 0 1 14.520545 25.01328v420.81853a30.646376 30.646376 0 0 1-10.908651 22.83155l-70.778536 40.993177-36.483781 21.160593-130.466003 75.608989-132.312082 76.681612a32.069244 32.069244 0 0 1-22.525087-0.445102l-156.537312-90.034676-31.974387 54.229493 140.681462 80.993995c4.655331 2.641426 8.799888 4.990981 12.200176 6.902731 5.268258 2.918703 8.858262 4.925311 10.120601 5.538238a91.413763 91.413763 0 0 0 37.344799 7.683485 94.055189 94.055189 0 0 0 34.44069-6.47952l384.298264-222.551067a93.953034 93.953034 0 0 0 36.206505-70.778536z" fill="#96BEDC" p-id="20583"></path></svg>