<svg xmlns="http://www.w3.org/2000/svg" xmlns:xlink="http://www.w3.org/1999/xlink" fill="none" version="1.1" width="144" height="26" viewBox="0 0 144 26"><defs><clipPath id="master_svg0_213_18022"><rect x="0" y="0" width="144" height="26" rx="0"/></clipPath></defs><g clip-path="url(#master_svg0_213_18022)"><g><path d="M4.21896,3.96714L10.9298,0L17.6406,3.96714L15.1734,5.43271L10.9298,2.93114L6.68618,5.43271L4.21896,3.96714ZM17.6406,8.97028L15.1734,7.50472L10.9298,10.0063L6.68618,7.50472L4.21896,8.97028L4.21896,11.9014L8.46255,14.403L8.46255,19.4061L10.9298,20.8717L13.397,19.4061L13.397,14.403L17.6406,11.9014L17.6406,8.97028ZM17.6406,16.9046L17.6406,13.9734L15.1734,15.439L15.1734,18.3701L17.6406,16.9046ZM19.3924,17.9406L15.1487,20.4422L15.1487,23.3733L21.8596,19.4061L21.8596,11.4719L19.3924,12.9374L19.3924,17.9406ZM16.9252,6.46871L19.3924,7.93427L19.3924,10.8654L21.8596,9.39985L21.8596,6.46871L19.3924,5.00315L16.9252,6.46871ZM8.46255,21.5035L8.46255,24.4346L10.9298,25.9001L13.397,24.4346L13.397,21.5035L10.9298,22.969L8.46255,21.5035ZM4.21896,16.9046L6.68618,18.3701L6.68618,15.439L4.21896,13.9734L4.21896,16.9046ZM8.46255,6.46871L10.9298,7.93427L13.397,6.46871L10.9298,5.00315L8.46255,6.46871ZM2.46722,7.93427L4.93442,6.46871L2.46722,5.00315L0,6.46871L0,9.39985L2.46722,10.8654L2.46722,7.93427ZM2.46722,12.9374L0,11.4719L0,19.4061L6.7108,23.3733L6.7108,20.4422L2.46722,17.9406L2.46722,12.9374Z" fill="#FFFFFF" fill-opacity="1"/></g><g><path d="M41.309923828125,16.25405703125L41.309923828125,16.21285703125C41.309923828125,14.27721703125,40.304523828125,13.30940703125,38.676083828125,12.671057031250001C39.681323828125,12.09450703125,40.525723828125,11.18846703125,40.525723828125,9.56172703125L40.525723828125,9.52053703125C40.525723828125,7.25546703125,38.756403828125,5.79345703125,35.881283828125,5.79345703125L29.346923828125,5.79345703125L29.346923828125,20.20765703125L36.042203828125,20.20765703125C39.218953828125,20.20765703125,41.309923828125,18.88965703125,41.309923828125,16.25405703125ZM37.449643828125,10.097107031250001C37.449643828125,11.16787703125,36.585073828125,11.62089703125,35.217793828125,11.62089703125L32.362893828125,11.62089703125L32.362893828125,8.573327031249999L35.418873828125,8.573327031249999C36.725773828125,8.573327031249999,37.449643828125,9.108707031249999,37.449643828125,10.05592703125L37.449643828125,10.097107031250001ZM38.233763828125,15.86285703125C38.233763828125,16.93355703125,37.409343828125,17.42765703125,36.042203828125,17.42765703125L32.362893828125,17.42765703125L32.362893828125,14.25661703125L35.941663828125,14.25661703125C37.529963828125,14.25661703125,38.233763828125,14.85382703125,38.233763828125,15.82155703125L38.233763828125,15.86285703125Z" fill="#FFFFFF" fill-opacity="1"/></g><g><path d="M56.5642716796875,20.20765703125L56.5642716796875,5.79345703125L53.5081116796875,5.79345703125L53.5081116796875,14.66845703125L46.9133716796875,5.79345703125L44.0584716796875,5.79345703125L44.0584716796875,20.20765703125L47.1144616796875,20.20765703125L47.1144616796875,11.044327031249999L53.9303616796875,20.20765703125L56.5642716796875,20.20765703125Z" fill="#FFFFFF" fill-opacity="1"/></g><g><path d="M72.106798828125,16.25405703125L72.106798828125,16.21285703125C72.106798828125,14.27721703125,71.101398828125,13.30940703125,69.472958828125,12.671057031250001C70.478198828125,12.09450703125,71.322598828125,11.18846703125,71.322598828125,9.56172703125L71.322598828125,9.52053703125C71.322598828125,7.25546703125,69.553278828125,5.79345703125,66.678158828125,5.79345703125L60.143798828125,5.79345703125L60.143798828125,20.20765703125L66.839078828125,20.20765703125C70.015828828125,20.20765703125,72.106798828125,18.88965703125,72.106798828125,16.25405703125ZM68.246518828125,10.097107031250001C68.246518828125,11.16787703125,67.381948828125,11.62089703125,66.014668828125,11.62089703125L63.159768828125,11.62089703125L63.159768828125,8.573327031249999L66.215748828125,8.573327031249999C67.522648828125,8.573327031249999,68.246518828125,9.108707031249999,68.246518828125,10.05592703125L68.246518828125,10.097107031250001ZM69.030638828125,15.86285703125C69.030638828125,16.93355703125,68.206218828125,17.42765703125,66.839078828125,17.42765703125L63.159768828125,17.42765703125L63.159768828125,14.25661703125L66.738538828125,14.25661703125C68.326838828125,14.25661703125,69.030638828125,14.85382703125,69.030638828125,15.82155703125L69.030638828125,15.86285703125Z" fill="#FFFFFF" fill-opacity="1"/></g><g><path d="M90.76719716796875,17.661640625L89.17889716796876,16.014240625C87.97259716796876,17.167340625,86.86675716796876,17.888140625,85.13760716796875,17.888140625C82.44348716796875,17.888140625,80.49317716796875,15.581840625,80.49317716796875,12.740230624999999C80.49317716796875,9.898580625000001,82.44348716796875,7.633490625,85.13760716796875,7.633490625C86.74612716796875,7.633490625,87.95249716796874,8.354210625,89.07839716796875,9.424970625L90.66669716796875,7.551130625C89.31959716796875,6.233254625,87.75140716796875,5.306640625,85.15768716796875,5.306640625C80.89534716796875,5.306640625,77.89959716796875,8.663080625,77.89959716796875,12.781410625C77.89959716796875,16.940840625,80.95558716796874,20.214940625,85.05714716796875,20.214940625C87.69102716796876,20.214940625,89.29959716796876,19.226540625,90.76719716796875,17.661640625Z" fill="#FFFFFF" fill-opacity="1"/></g><g><path d="M102.755946953125,13.89284265625L102.755946953125,19.96742265625L105.228926953125,19.96742265625L105.228926953125,5.55322265625L102.755946953125,5.55322265625L102.755946953125,11.545402656250001L96.040586953125,11.545402656250001L96.040586953125,5.55322265625L93.567626953125,5.55322265625L93.567626953125,19.96742265625L96.040586953125,19.96742265625L96.040586953125,13.89284265625L102.755946953125,13.89284265625Z" fill="#FFFFFF" fill-opacity="1"/></g><g><path d="M116.32275373046875,5.45068359375L114.03065373046876,5.45068359375L107.83807373046875,19.96778359375L110.37141373046875,19.96778359375L111.81902373046876,16.487783593750002L118.47397373046874,16.487783593750002L119.90147373046875,19.96778359375L122.51527373046875,19.96778359375L116.32275373046875,5.45068359375ZM117.56926373046875,14.24332359375L112.72375373046874,14.24332359375L115.13646373046875,8.47765359375L117.56926373046875,14.24332359375Z" fill="#FFFFFF" fill-opacity="1"/></g><g><path d="M125.27099609375,5.55322265625L125.27099609375,19.96742265625L127.74395609375,19.96742265625L127.74395609375,5.55322265625L125.27099609375,5.55322265625Z" fill="#FFFFFF" fill-opacity="1"/></g><g><path d="M141.5436440625,15.51962265625L134.00386406249999,5.55322265625L131.7119140625,5.55322265625L131.7119140625,19.96742265625L134.1447040625,19.96742265625L134.1447040625,9.712732656250001L141.9055140625,19.96742265625L143.9766140625,19.96742265625L143.9766140625,5.55322265625L141.5436440625,5.55322265625L141.5436440625,15.51962265625Z" fill="#FFFFFF" fill-opacity="1"/></g></g></svg>