<?xml version="1.0" standalone="no"?><!DOCTYPE svg PUBLIC "-//W3C//DTD SVG 1.1//EN" "http://www.w3.org/Graphics/SVG/1.1/DTD/svg11.dtd"><svg t="1686795962438" class="icon" viewBox="0 0 1024 1024" version="1.1" xmlns="http://www.w3.org/2000/svg" p-id="9639" xmlns:xlink="http://www.w3.org/1999/xlink" width="128" height="128"><path d="M512 512m-512 0a512 512 0 1 0 1024 0 512 512 0 1 0-1024 0Z" fill="#607AE3" p-id="9640"></path><path d="M512 144.042667l-4.949333 16.725333v486.570667l4.949333 4.949333L737.792 518.826667z" fill="#BCC5EE" p-id="9641"></path><path d="M512 144.042667L286.037333 518.826667 512 652.288V416.085333z" fill="#F7F7F7" p-id="9642"></path><path d="M512 695.125333l-2.901333 3.413334v173.226666l2.901333 8.192 225.962667-318.293333z" fill="#BCC5EE" p-id="9643"></path><path d="M512 879.957333V695.125333l-225.962667-133.461333z" fill="#F7F7F7" p-id="9644"></path><path d="M512 652.288L737.792 518.826667 512 416.085333z" fill="#7D93E7" p-id="9645"></path><path d="M286.037333 518.826667L512 652.288V416.085333z" fill="#BCC5EE" p-id="9646"></path></svg>