<svg xmlns="http://www.w3.org/2000/svg" xmlns:xlink="http://www.w3.org/1999/xlink" fill="none" version="1.1" width="100" height="26" viewBox="0 0 100 26"><defs><clipPath id="master_svg0_213_18046"><rect x="0" y="0" width="100" height="26" rx="0"/></clipPath></defs><g clip-path="url(#master_svg0_213_18046)"><g><g><g><path d="M9.123983401417732,0.24830920904541015C9.755983401417732,-0.08420269095458985,10.715983401417732,-0.08420269095458985,11.343983401417733,0.24830920904541015L17.783983401417732,3.63752520904541C18.16398340141773,3.83783520904541,18.371983401417733,4.1342852090454105,18.411983401417732,4.44276520904541L18.415983401417733,4.44276520904541L18.415983401417733,21.47692520904541C18.40798340141773,21.81352520904541,18.19598340141773,22.14602520904541,17.783983401417732,22.36232520904541L11.343983401417733,25.75152520904541C10.711983401417733,26.08402520904541,9.751983401417732,26.08402520904541,9.123983401417732,25.75152520904541L2.6839834014177324,22.36232520904541C2.271983401417732,22.14602520904541,2.0759834014177323,21.80952520904541,2.0639834014177323,21.47692520904541C2.0639834014177323,21.44492520904541,2.0639834014177323,21.41682520904541,2.0639834014177323,21.39282520904541L2.0639834014177323,4.55092520904541C2.0639834014177323,4.53089520904541,2.0639834014177323,4.51487520904541,2.0639834014177323,4.49484520904541L2.0639834014177323,4.43875520904541L2.0679834014177323,4.43875520904541C2.0959834014177323,4.12627520904541,2.295983401417732,3.83783520904541,2.6839834014177324,3.6335152090454104L9.123983401417732,0.24830920904541015ZM17.403983401417733,13.94542520904541L11.347983401417732,17.13432520904541C10.715983401417732,17.46682520904541,9.755983401417732,17.46682520904541,9.127983401417731,17.13432520904541L3.0799834014177323,13.95342520904541L3.0799834014177323,21.44092520904541L9.123983401417732,24.60582520904541C9.463983401417732,24.78602520904541,9.819983401417732,24.96632520904541,10.163983401417733,24.98632520904541L10.231983401417732,24.99032520904541C10.591983401417732,24.99032520904541,10.943983401417732,24.81012520904541,11.299983401417732,24.63782520904541L17.39998340141773,21.41682520904541L17.39998340141773,13.94542520904541L17.403983401417733,13.94542520904541ZM1.0199834014177322,21.10442520904541C1.0199834014177322,21.75742520904541,1.0959834014177323,22.18602520904541,1.2479834014177322,22.48652520904541C1.3719834014177323,22.73892520904541,1.5599834014177323,22.92722520904541,1.9039834014177321,23.15952520904541L1.9239834014177322,23.17152520904541C1.9999834014177322,23.22362520904541,2.0839834014177323,23.27572520904541,2.1839834014177324,23.33582520904541L2.303983401417732,23.40792520904541L2.6679834014177324,23.62822520904541L2.1439834014177324,24.493625209045412L1.7359834014177322,24.24522520904541L1.6679834014177322,24.20512520904541C1.5479834014177323,24.13302520904541,1.4519834014177322,24.06892520904541,1.3599834014177323,24.00882520904541C0.37998340141773224,23.35582520904541,0.01598340141773224,22.64272520904541,0.007983401417732239,21.15242520904541L0.007983401417732239,21.10842520904541Q0.007983401417732239,21.10442520904541,1.0199834014177322,21.10442520904541ZM9.727983401417733,9.38235520904541C9.679983401417733,9.39838520904541,9.635983401417732,9.41841520904541,9.595983401417731,9.43844520904541L3.1599834014177324,12.82362520904541C3.1519834014177324,12.82762520904541,3.1479834014177324,12.831625209045411,3.1399834014177324,12.83562520904541L3.1359834014177324,12.83972520904541L3.1479834014177324,12.84372520904541L3.1639834014177324,12.85172520904541L9.603983401417732,16.24092520904541C9.643983401417731,16.26092520904541,9.687983401417732,16.28092520904541,9.735983401417732,16.29702520904541L9.735983401417732,9.38235520904541L9.727983401417733,9.38235520904541ZM10.743983401417733,9.38235520904541L10.743983401417733,16.29702520904541C10.791983401417733,16.28092520904541,10.835983401417732,16.26092520904541,10.875983401417733,16.24092520904541L17.315983401417732,12.85172520904541C17.32398340141773,12.84772520904541,17.327983401417733,12.84372520904541,17.33598340141773,12.83972520904541L17.339983401417733,12.83562520904541L17.327983401417733,12.831625209045411L17.31198340141773,12.82362520904541L10.871983401417733,9.43443520904541C10.831983401417732,9.41440520904541,10.787983401417732,9.39437520904541,10.743983401417733,9.38235520904541ZM17.403983401417733,5.65262520904541L11.627983401417731,8.69329520904541L17.403983401417733,11.73402520904541L17.403983401417733,5.65262520904541ZM3.0799834014177323,5.65662520904541L3.0799834014177323,11.721925209045411L8.843983401417733,8.68929520904541L3.0799834014177323,5.65662520904541ZM10.871983401417733,1.1416852090454102C10.535983401417733,0.9654122090454101,9.931983401417732,0.9654122090454101,9.595983401417731,1.1416852090454102L3.1599834014177324,4.53089520904541C3.1519834014177324,4.5349052090454105,3.1479834014177324,4.53890520904541,3.1399834014177324,4.54291520904541L3.1359834014177324,4.54692520904541L3.1479834014177324,4.55092520904541L3.1639834014177324,4.55893520904541L9.603983401417732,7.94815520904541C9.939983401417733,8.12442520904541,10.543983401417732,8.12442520904541,10.879983401417732,7.94815520904541L17.319983401417733,4.55893520904541C17.327983401417733,4.55493520904541,17.331983401417734,4.55092520904541,17.339983401417733,4.54692520904541L17.34398340141773,4.54291520904541L17.331983401417734,4.53890520904541L17.315983401417732,4.53089520904541Q17.31198340141773,4.53089520904541,10.871983401417733,1.1416852090454102ZM18.35598340141773,1.5142552090454102L18.763983401417732,1.7586352090454103L18.831983401417734,1.8026952090454103C18.95198340141773,1.8748152090454102,19.04798340141773,1.9389052090454102,19.139983401417734,1.9990052090454102C20.11998340141773,2.6560152090454103,20.48398340141773,3.37311520904541,20.487983401417733,4.8634052090454105L20.487983401417733,4.90747520904541L19.475983401417732,4.90747520904541C19.475983401417732,4.2544752090454105,19.39998340141773,3.8258152090454103,19.24798340141773,3.52534520904541C19.123983401417732,3.27296520904541,18.935983401417733,3.08467520904541,18.591983401417732,2.8523152090454102L18.571983401417732,2.84029520904541C18.495983401417732,2.78821520904541,18.411983401417732,2.7361352090454103,18.31198340141773,2.67604520904541L18.191983401417733,2.60393520904541L17.827983401417733,2.38359520904541L18.35598340141773,1.5142552090454102Z" fill="#FFFFFF" fill-opacity="1"/></g><g><path d="M30.783968752980233,20.76375294342041L30.783968752980233,11.26512294342041L33.41196875298023,11.26512294342041L33.41196875298023,9.52645294342041L30.783968752980233,9.52645294342041L30.783968752980233,8.27653294342041C30.783968752980233,6.866362943420411,31.399968752980232,6.15727294342041,32.631968752980235,6.15727294342041C32.98796875298023,6.15727294342041,33.36796875298023,6.21736294342041,33.76796875298023,6.33754294342041L33.76796875298023,4.48669794342041C33.27596875298023,4.33847014342041,32.735968752980234,4.26235294342041,32.13996875298023,4.26235294342041C30.995968752980232,4.26235294342041,30.107968752980234,4.59085794342041,29.475968752980233,5.24386294342041C28.84396875298023,5.89686294342041,28.527968752980232,6.85033294342041,28.527968752980232,8.09625294342041L28.527968752980232,9.52244294342041L26.367968752980232,9.52244294342041L26.367968752980232,11.26112294342041L28.527968752980232,11.26112294342041L28.527968752980232,20.75975294342041L30.783968752980233,20.75975294342041L30.783968752980233,20.76375294342041ZM39.92396875298023,20.91995294342041C40.78396875298023,20.91995294342041,41.53996875298023,20.73965294342041,42.18796875298023,20.38315294342041C42.835968752980236,20.02665294342041,43.31996875298023,19.51385294342041,43.64796875298023,18.84475294342041L43.64796875298023,20.76375294342041L45.87596875298023,20.76375294342041L45.87596875298023,9.52645294342041L43.64796875298023,9.52645294342041L43.64796875298023,11.353262943420411C43.30396875298023,10.68423294342041,42.81596875298023,10.16743294342041,42.17596875298023,9.802872943420411C41.53596875298023,9.43831294342041,40.787968752980234,9.25803294342041,39.92396875298023,9.25803294342041C38.95596875298023,9.25803294342041,38.095968752980234,9.50241294342041,37.33996875298023,9.99517294342041C36.58396875298023,10.48392294342041,35.991968752980235,11.17699294342041,35.567968752980235,12.07036294342041C35.14396875298023,12.96374294342041,34.93196875298023,13.98931294342041,34.93196875298023,15.14705294342041C34.93196875298023,16.30485294342041,35.13996875298023,17.32245294342041,35.555968752980235,18.19175294342041C35.97196875298023,19.06115294342041,36.555968752980235,19.734152943420412,37.30396875298023,20.21085294342041C38.055968752980235,20.68365294342041,38.927968752980235,20.91995294342041,39.92396875298023,20.91995294342041ZM40.45996875298023,19.13725294342041C39.43596875298023,19.13725294342041,38.63596875298023,18.78865294342041,38.06396875298023,18.08765294342041C37.491968752980235,17.39055294342041,37.20396875298023,16.40905294342041,37.20396875298023,15.14305294342041C37.20396875298023,13.86512294342041,37.491968752980235,12.86358294342041,38.06396875298023,12.14247294342041C38.63596875298023,11.42136294342041,39.427968752980235,11.06081294342041,40.43596875298023,11.06081294342041C41.45996875298023,11.06081294342041,42.25196875298023,11.40935294342041,42.811968752980235,12.11042294342041C43.36796875298023,12.80750294342041,43.64796875298023,13.80503294342041,43.64796875298023,15.09905294342041C43.64796875298023,16.37695294342041,43.36796875298023,17.37055294342041,42.811968752980235,18.07565294342041C42.25196875298023,18.78465294342041,41.467968752980234,19.13725294342041,40.45996875298023,19.13725294342041ZM51.403968752980234,20.76375294342041L51.403968752980234,14.36585294342041C51.403968752980234,13.36836294342041,51.69196875298023,12.57514294342041,52.26396875298023,11.978222943420409C52.835968752980236,11.38531294342041,53.595968752980234,11.08485294342041,54.54796875298023,11.08485294342041C55.37996875298023,11.08485294342041,55.98396875298023,11.30919294342041,56.36396875298023,11.753882943420411C56.74396875298024,12.19856294342041,56.93196875298023,12.91166294342041,56.93196875298023,13.89317294342041L56.93196875298023,20.75975294342041L59.183968752980235,20.75975294342041L59.183968752980235,13.76497294342041C59.183968752980235,10.760352943420411,57.83996875298023,9.262042943420411,55.14796875298023,9.262042943420411C54.287968752980234,9.262042943420411,53.51596875298023,9.45033294342041,52.83996875298023,9.830922943420411C52.16396875298023,10.21150294342041,51.64796875298023,10.75634294342041,51.29196875298023,11.469442943420411L51.091968752980236,9.53046294342041L48.99596875298023,9.53046294342041C49.11596875298024,10.467902943420409,49.17596875298023,11.521522943420411,49.17596875298023,12.69532294342041L49.17596875298023,20.767752943420412L51.403968752980234,20.767752943420412L51.403968752980234,20.76375294342041ZM66.71596875298023,20.91995294342041C67.33996875298024,20.91995294342041,67.89596875298022,20.83985294342041,68.38796875298024,20.67565294342041L68.38796875298024,18.848752943420408C67.98796875298024,18.968952943420412,67.59196875298022,19.02905294342041,67.20796875298024,19.02905294342041C66.61196875298023,19.02905294342041,66.14796875298023,18.86885294342041,65.81596875298024,18.54835294342041C65.47996875298023,18.22785294342041,65.31596875298024,17.68295294342041,65.31596875298024,16.90985294342041L65.31596875298024,11.26512294342041L68.41596875298023,11.26512294342041L68.41596875298023,9.52645294342041L65.31596875298024,9.52645294342041L65.31596875298024,5.93693294342041L63.06396875298023,6.71813294342041L63.06396875298023,9.52645294342041L60.87996875298023,9.52645294342041L60.87996875298023,11.26512294342041L63.06396875298023,11.26512294342041L63.06396875298023,17.086052943420412C63.06396875298023,18.336052943420412,63.38396875298023,19.28545294342041,64.02396875298024,19.93845294342041C64.65596875298023,20.595452943420412,65.55596875298023,20.91995294342041,66.71596875298023,20.91995294342041ZM75.31996875298023,20.91995294342041C76.40396875298023,20.91995294342041,77.36396875298024,20.68365294342041,78.19596875298024,20.206852943420408C79.02796875298023,19.73015294342041,79.67196875298023,19.05315294342041,80.12396875298023,18.17575294342041C80.57596875298023,17.298452943420408,80.80396875298024,16.27285294342041,80.80396875298024,15.09905294342041C80.80396875298024,13.92522294342041,80.57596875298023,12.89563294342041,80.12396875298023,12.01027294342041C79.67196875298023,11.12491294342041,79.02796875298023,10.44386294342041,78.19596875298024,9.971132943420411C77.36396875298024,9.494402943420411,76.40396875298023,9.25804294342041,75.31996875298023,9.25804294342041C74.21996875298024,9.25804294342041,73.25596875298024,9.494402943420411,72.42396875298023,9.971132943420411C71.59196875298022,10.44787294342041,70.94796875298023,11.12491294342041,70.49596875298023,12.01027294342041C70.04396875298023,12.89563294342041,69.81596875298024,13.92522294342041,69.81596875298024,15.09905294342041C69.81596875298024,16.27285294342041,70.04396875298023,17.298452943420408,70.49596875298023,18.17575294342041C70.94796875298023,19.05315294342041,71.59196875298022,19.73015294342041,72.42396875298023,20.206852943420408C73.25596875298024,20.68365294342041,74.21996875298024,20.91995294342041,75.31996875298023,20.91995294342041ZM75.29596875298023,19.13725294342041C74.27196875298023,19.13725294342041,73.47996875298023,18.796752943420408,72.91996875298022,18.11165294342041C72.36396875298024,17.42665294342041,72.08396875298024,16.42505294342041,72.08396875298024,15.10305294342041C72.08396875298024,13.80904294342041,72.36796875298023,12.81551294342041,72.93196875298023,12.114432943420411C73.49596875298023,11.417362943420411,74.29196875298024,11.06481294342041,75.31596875298024,11.06481294342041C76.32796875298024,11.06481294342041,77.11196875298023,11.41335294342041,77.66796875298023,12.114432943420411C78.22396875298023,12.81150294342041,78.50396875298023,13.80904294342041,78.50396875298023,15.10305294342041C78.50396875298023,16.42505294342041,78.22796875298023,17.430652943420412,77.67996875298023,18.11165294342041C77.13196875298024,18.796752943420408,76.33596875298024,19.13725294342041,75.29596875298023,19.13725294342041ZM85.65996875298023,20.76375294342041L85.65996875298023,14.40995294342041C85.65996875298023,13.38438294342041,85.91196875298023,12.57514294342041,86.41596875298023,11.978222943420409C86.91996875298022,11.38531294342041,87.60396875298022,11.08485294342041,88.46796875298023,11.08485294342041C89.21196875298023,11.08485294342041,89.74796875298023,11.30919294342041,90.08396875298024,11.753882943420411C90.41996875298024,12.19856294342041,90.58396875298023,12.90765294342041,90.58396875298023,13.87314294342041L90.58396875298023,20.76375294342041L92.83596875298024,20.76375294342041L92.83596875298024,14.40995294342041C92.83596875298024,13.38438294342041,93.08396875298023,12.57514294342041,93.58396875298023,11.978222943420409C94.07996875298024,11.38531294342041,94.75996875298023,11.08485294342041,95.62396875298023,11.08485294342041C96.36796875298023,11.08485294342041,96.90396875298023,11.30919294342041,97.23996875298023,11.753882943420411C97.57596875298023,12.19856294342041,97.73996875298023,12.90765294342041,97.73996875298023,13.87314294342041L97.73996875298023,20.76375294342041L99.99196875298023,20.76375294342041L99.99196875298023,13.76497294342041C99.99196875298023,10.760352943420411,98.74396875298024,9.262042943420411,96.24796875298023,9.262042943420411C95.41596875298023,9.262042943420411,94.66796875298023,9.45434294342041,94.00796875298023,9.842942943420411C93.34796875298024,10.22753294342041,92.84396875298023,10.75634294342041,92.50396875298023,11.42537294342041C91.96796875298023,9.98315294342041,90.83196875298023,9.262042943420411,89.09196875298022,9.262042943420411C88.27596875298023,9.262042943420411,87.55996875298024,9.44633294342041,86.95196875298024,9.81890294342041C86.34396875298023,10.191472943420411,85.87596875298024,10.71628294342041,85.54796875298024,11.40133294342041L85.34796875298022,9.52645294342041L83.25196875298023,9.52645294342041C83.37196875298022,10.46389294342041,83.43196875298023,11.51751294342041,83.43196875298023,12.69132294342041L83.43196875298023,20.76375294342041L85.65996875298023,20.76375294342041Z" fill="#FFFFFF" fill-opacity="1"/></g></g></g></g></svg>