<svg xmlns="http://www.w3.org/2000/svg" xmlns:xlink="http://www.w3.org/1999/xlink" fill="none" version="1.1" width="40" height="40" viewBox="0 0 40 40"><defs><clipPath id="master_svg0_238_36627"><rect x="0" y="0" width="40" height="40" rx="0"/></clipPath><linearGradient x1="0.5" y1="0" x2="0.5" y2="1" id="master_svg1_128_01470"><stop offset="0%" stop-color="#2D48FF" stop-opacity="1"/><stop offset="99.28571581840515%" stop-color="#3DBAFF" stop-opacity="1"/></linearGradient></defs><g clip-path="url(#master_svg0_238_36627)"><g><path d="M9.36035,19.9679L9.36035,19.8706L5.16656,19.8706L11.8386,13.12824L18.5238,19.8706L14.3088,19.8706L14.3115,19.9679C14.3115,26.7003,19.3788,32.255700000000004,25.854,32.930800000000005C26.2882,32.9754,26.7245,32.9976,27.1609,32.997299999999996C27.3357,32.997299999999996,27.5093,32.990700000000004,27.6823,32.9841C27.7344,32.9825,27.7881,32.981899999999996,27.8402,32.9792C28.0204,32.969300000000004,28.1994,32.955,28.3779,32.938C28.4267,32.933,28.4761,32.9292,28.5249,32.9237C28.7127,32.903400000000005,28.9004,32.8803,29.0859,32.8518C29.1098,32.847899999999996,29.1342,32.8446,29.158,32.840199999999996C35.3005,31.8684,40,26.49,40,19.9981C40,12.81954,34.2518,7,27.1609,7C26.5223,7,25.8957,7.0493993,25.2816,7.139497C28.5861,10.41565,30.6396,14.98058,30.6396,20.0321L30.6407,20.1294L34.8334,20.1294L28.1613,26.8712L21.4768,20.1294L25.6911,20.1294L25.689,20.0321C25.689,13.29965,20.6211,7.744871,14.1455,7.0691762C13.7114,7.0245488,13.2753,7.0023585,12.839,7.00269043C12.6638,7.00269043,12.4907,7.0087816,12.3176,7.0164546C12.265,7.017352,12.2124,7.0188149,12.1598,7.0208445C11.9796,7.0306925,11.8006,7.0449708,11.6216,7.0625708C11.5727,7.0669607,11.5239,7.0707972,11.4756,7.0762951C11.2874,7.0965849,11.0997,7.119683,10.9141,7.148239C10.8902,7.152115,10.8664,7.155952,10.8425,7.159274C4.69945,8.1316,0,13.510580000000001,0,20.002499999999998C0,27.1805,5.74816,33,12.8391,33C13.4782,33,14.1043,32.9506,14.7184,32.859899999999996C11.4138,29.5844,9.36035,25.0189,9.36035,19.9679Z" fill="url(#master_svg1_128_01470)" fill-opacity="1"/></g></g></svg>