<svg xmlns="http://www.w3.org/2000/svg" xmlns:xlink="http://www.w3.org/1999/xlink" fill="none" version="1.1" width="60" height="60" viewBox="0 0 60 60"><defs><clipPath id="master_svg0_299_72548"><rect x="0" y="0" width="60" height="60" rx="0"/></clipPath><linearGradient x1="0" y1="1" x2="1" y2="0" id="master_svg1_284_53833"><stop offset="0%" stop-color="#2F56FF" stop-opacity="1"/><stop offset="100%" stop-color="#3BAEFF" stop-opacity="1"/></linearGradient></defs><g clip-path="url(#master_svg0_299_72548)"><g><path d="M56.1113,36.016400000000004L47.4435,32.800200000000004C47.6326,32.807900000000004,47.8139,32.8233,48.003,32.8233C54.6299,32.8233,60,27.6851,60,21.3414C60,14.99759,54.6299,9.85556,48.003,9.85556C41.376,9.85556,36.002,14.99759,36.002,21.3414C36.002,24.8772,37.6765,28.0433,40.3044,30.1464L14.5531,20.5826L14.6162,20.586399999999998C18.824,20.586399999999998,22.236,17.3202,22.236,13.29514C22.236,9.26625,18.824,6,14.6162,6C10.4083,6,6.99638,9.26625,6.99638,13.29514C6.99638,15.4521,7.98136,17.3857,9.54156,18.7222L3.65534,16.534399999999998C2.30216,16.0243,0.78019,16.6663,0.231553,17.9788L0.176394,18.113599999999998C-0.346634,19.4255,0.33369,20.9015,1.68538,21.3876L25.9907,30.416C25.8817,30.5122,25.7791,30.6152,25.6834,30.7241L10.2389,48.623C8.38717,50.7646,9.98283,54,12.8826,54L43.7715,54C46.6752,54,48.2669,50.7646,46.4191,48.623L32.9249,32.9928L54.1414,40.8695C55.4957,41.3822,57.0204,40.7397,57.5691,39.4251L57.6203,39.2903C58.1433,37.9785,57.463,36.5024,56.1113,36.016400000000004Z" fill="url(#master_svg1_284_53833)" fill-opacity="1"/></g></g></svg>