<?xml version="1.0" standalone="no"?><!DOCTYPE svg PUBLIC "-//W3C//DTD SVG 1.1//EN" "http://www.w3.org/Graphics/SVG/1.1/DTD/svg11.dtd"><svg t="1686794226455" class="icon" viewBox="0 0 1024 1024" version="1.1" xmlns="http://www.w3.org/2000/svg" p-id="19481" xmlns:xlink="http://www.w3.org/1999/xlink" width="128" height="128"><path d="M512 512m-512 0a512 512 0 1 0 1024 0 512 512 0 1 0-1024 0Z" fill="#F0B90B" p-id="19482"></path><path d="M323.3792 265.472L512 156.6208l188.6208 108.8512-69.3248 40.2432L512 237.056 392.704 305.664l-69.3248-40.192z m377.2416 137.3184L631.296 362.496 512 431.2064l-119.296-68.608-69.3248 40.192v80.384l119.296 68.7104v137.2672l69.3248 40.2432 69.3248-40.2432V551.936l119.296-68.6592V402.7904z m0 217.7536v-80.4864l-69.3248 40.2432v80.4352l69.3248-40.192z m49.2544 28.416l-119.296 68.608v80.4864L819.2 689.152V471.4496l-69.3248 40.192v137.3184z m-69.376-314.88l69.376 40.2432v80.4864L819.2 414.5664V334.1312l-69.3248-40.2432-69.376 40.2432z m-237.824 412.672v80.384l69.3248 40.2432 69.3248-40.192v-80.4352L512 786.944l-69.3248-40.192z m-119.296-126.2592l69.3248 40.2432v-80.4352l-69.3248-40.2432v80.4864z m119.296-286.3616L512 374.272l69.3248-40.192L512 293.888l-69.3248 40.2432z m-168.5504 40.192l69.376-40.192-69.376-40.2432L204.8 334.1312v80.4352l69.3248 40.2432V374.272z m0 137.3184L204.8 471.4496v217.7024l188.6208 108.9024v-80.4352l-119.296-68.6592V511.6416z" fill="#FFFFFF" p-id="19483"></path></svg>