<svg xmlns="http://www.w3.org/2000/svg" xmlns:xlink="http://www.w3.org/1999/xlink" fill="none" version="1.1" width="40" height="40" viewBox="0 0 40 40"><defs><clipPath id="master_svg0_238_36636"><rect x="0" y="0" width="40" height="40" rx="0"/></clipPath><linearGradient x1="0.5" y1="0" x2="0.5" y2="1" id="master_svg1_128_01624"><stop offset="0%" stop-color="#2D48FF" stop-opacity="1"/><stop offset="100%" stop-color="#3DBAFF" stop-opacity="1"/></linearGradient></defs><g clip-path="url(#master_svg0_238_36636)"><g><path d="M6.99783,20.0515C6.99783,14.1901,10.75089,9.13566,16.0375,7.41581C15.8146,7.95559,15.9926,8.59611,16.4937,8.93558C17.0658,9.32304,17.842399999999998,9.17146,18.2282,8.59701L20.892,4.63131C21.2779,4.05683,21.1269,3.277,20.5548,2.88954L16.6057,0.21464C16.0336,-0.172861,15.257,-0.0212795,14.8711,0.553208C14.4852,1.12769,14.6362,1.90752,15.2083,2.29502L15.3461,2.38834C7.57688,4.49079,2,11.6824,2,20.0515C2,28.0915,7.15807,35.1228,14.6055,37.496C15.9209,37.9152,17.325699999999998,37.1841,17.7432,35.8632C18.1606,34.5422,17.4326,33.1315,16.1172,32.7123C10.73957,30.9987,6.99783,25.8981,6.99783,20.0515ZM20.4882,33.9657C20.3532,34.1168,20.2368,34.2837,20.1416,34.4628L19.5705,35.2819C19.1747,35.8495,19.3121,36.6318,19.8773,37.0293L23.7794,39.773C24.3447,40.1704,25.1237,40.0325,25.5196,39.4649C25.9153,38.8973,25.778,38.1149,25.2127,37.7175L25.0498,37.6029C32.602000000000004,35.3696,38,28.2875,38,20.0515C38,12.0244,32.8583,5.00176,25.4278,2.61775C24.1132,2.19594,22.7069,2.9242,22.2869,4.24436C21.8668,5.56448,22.5921,6.97659,23.9067,7.3984C29.2723,9.11986,33.0022,14.2143,33.0022,20.0515C33.0022,25.7162,29.4989,30.6181,24.5062,32.4967C24.6862,31.9796,24.5118,31.385,24.0429,31.0554C23.4776,30.6579,22.6985,30.7959,22.3027,31.3635L20.4882,33.9657ZM30.3861,20.0749C30.3861,25.835,25.7361,30.5045,20,30.5045C14.2639,30.5045,9.61388,25.835,9.61388,20.0749C9.61388,14.3148,14.2639,9.64537,20,9.64537C25.7361,9.64537,30.3861,14.3148,30.3861,20.0749ZM22.8977,19.8611C23.2704,20.1558,23.5596,20.5149,23.7563,20.9278C24.016,21.473,24.1103,22.1083,24.0366,22.816C23.9018,24.0984,23.0191,25.1608,21.7331,25.5887C21.5917,25.6357,21.4962,25.7685,21.4965,25.9181L21.4965,26.2799C21.4965,26.8365,21.0457,27.2893,20.4916,27.2893C19.9374,27.2893,19.4865,26.8365,19.4865,26.2799L19.4865,25.9361C19.4871,25.7852,19.3899,25.6514,19.2466,25.6057C17.8289,25.1506,16.8765,23.9533,16.8765,22.6265C16.8765,22.0698,17.3273,21.617,17.881500000000003,21.617C18.4356,21.617,18.8864,22.0699,18.8864,22.6265C18.8864,22.9101,19.0521,23.1984,19.3408,23.4175C19.6396,23.6444,20.0355,23.7693,20.4555,23.7693C20.8731,23.7693,21.2452,23.6609,21.5316,23.456C21.8232,23.2473,22.0008,22.949,22.0319,22.6159L22.0323,22.612C22.0912,22.0553,21.957,21.684,21.5969,21.4082C21.2619,21.1516,20.7433,20.9805,19.9904,20.7487L19.9235,20.7279C19.1621,20.4929,18.3744,20.2497,17.819200000000002,19.7317C17.8106,19.7236,17.8015,19.716,17.792099999999998,19.7089L17.773699999999998,19.695L17.7197,19.6404C17.673299999999998,19.5939,17.6423,19.5628,17.613799999999998,19.5228C17.6074,19.5138,17.6009,19.5055,17.5931,19.4964C17.1312,18.9591,16.8765,18.2817,16.8765,17.5897C16.8765,16.2628,17.828699999999998,15.0656,19.2461,14.6105C19.3896,14.5649,19.487,14.431,19.4865,14.2799L19.4865,13.9091C19.4865,13.3525,19.9374,12.8997,20.4916,12.8997C21.0457,12.8997,21.4964,13.3525,21.4964,13.9091L21.4964,14.298C21.4963,14.4473,21.5914,14.58,21.7325,14.6272C23.1148,15.0901,24.0436,16.277,24.0436,17.5806C24.0436,18.1372,23.5928,18.5901,23.0386,18.5901C22.4845,18.5901,22.0336,18.1372,22.0336,17.5806C22.0336,17.297,21.868,17.0087,21.5793,16.7895C21.2804,16.5627,20.8845,16.4378,20.4646,16.4378C20.0445,16.4378,19.6487,16.5627,19.3498,16.7895C19.0611,17.0087,18.8955,17.297,18.8955,17.5806C18.8955,17.7853,18.9661,17.9801,19.0996,18.144L19.1702,18.2255C19.181,18.2377,19.1925,18.2492,19.2048,18.2599C19.421,18.4461,19.9034,18.6059,20.5116,18.7954L20.6191,18.8288C21.3698,19.0601,22.2212,19.3224,22.8977,19.8611Z" fill-rule="evenodd" fill="url(#master_svg1_128_01624)" fill-opacity="1"/></g></g></svg>