<svg xmlns="http://www.w3.org/2000/svg" xmlns:xlink="http://www.w3.org/1999/xlink" fill="none" version="1.1" width="106" height="26" viewBox="0 0 106 26"><defs><clipPath id="master_svg0_213_18013"><rect x="0" y="0" width="106" height="26" rx="0"/></clipPath></defs><g clip-path="url(#master_svg0_213_18013)"><g><g><g><path d="M42.334999921875,8.8976594140625C43.215759921875,8.8753594140625,44.088079921875,9.0731994140625,44.872109921875,9.4730694140625C45.571019921875,9.8416594140625,46.144859921874996,10.4075194140625,46.521569921875,11.099559414062501C46.918769921875,11.8482194140625,47.117869921875,12.685229414062501,47.099869921875,13.5316294140625C47.095269921875,13.9588694140625,47.054069921875,14.3849494140625,46.976469921875,14.8051994140625C46.819669921875004,15.7742094140625,46.442769921875,16.6948794140625,45.874609921875,17.497259414062498C45.326239921875,18.269099414062502,44.598749921875,18.8977994140625,43.753929921875,19.330099414062502C42.880949921875,19.7748994140625,41.912249921875,20.0015994140625,40.931489921875,19.990699414062497C40.043279921875,20.0134994140625,39.163359921875,19.8156994140625,38.371239921875,19.415299414062503C37.671589921875,19.0508994140625,37.097249921875,18.4868994140625,36.721821921875,17.7955994140625C36.328877921875,17.0489794140625,36.132268821875,16.215539414062498,36.150308361875,15.3729394140625C36.153880581875,14.9354694140625,36.195160321875,14.4991194140625,36.273693921875,14.0686694140625C36.430707921875,13.0992994140625,36.807854921875,12.1783094140625,37.376449921875,11.3757594140625C37.925219921875,10.6031594140625,38.656019921875,9.9761994140625,39.504849921875,9.5497894140625C40.382319921875,9.1105994140625,41.352799921875004,8.8869794140625,42.334999921875,8.8976594140625ZM42.165339921875,10.8924094140625C41.262099921875,10.8799594140625,40.388979921875,11.2153294140625,39.728479921875,11.828409414062499C39.015979921875,12.496099414062499,38.548979921875,13.3820994140625,38.402089921875,14.3448694140625C38.355289921875,14.6290394140625,38.329519921875,14.9162294140625,38.324969921875,15.204149414062499Q38.324969921875,16.4930694140625,39.065289921875,17.2372694140625Q39.805599921875,17.981499414062498,41.100289921875,17.981499414062498C41.697539921875,17.9862994140625,42.286369921875,17.8411994140625,42.812259921875,17.5594894140625C43.345499921875,17.2701994140625,43.800549921875,16.8569494140625,44.138649921875,16.354969414062502C44.509029921875,15.8065594140625,44.751429921875,15.182669414062499,44.848119921874996,14.5289994140625C44.902439921875,14.2409494140625,44.928269921875,13.9482894140625,44.925229921875,13.6552294140625Q44.925229921875,12.3663094140625,44.184919921875,11.6306394140625Q43.444609921875,10.8949694140625,42.165339921875,10.8924094140625ZM54.519269921875,11.2760194140625Q55.938269921875005,11.2760194140625,56.778769921874996,12.1497894140625Q57.619369921875,13.0235594140625,57.619369921875,14.574179414062499C57.617869921875,14.9290294140625,57.586869921875,15.2831494140625,57.526769921875,15.6329394140625C57.386669921875,16.461889414062497,57.076869921875,17.2533894140625,56.616869921875,17.958399414062498C56.208969921874996,18.586299414062502,55.652669921875,19.1052994140625,54.996569921875,19.4698994140625C54.374069921875005,19.813399414062502,53.673469921875,19.9926994140625,52.961569921875,19.990699414062497C52.336569921875,20.0194994140625,51.720069921875,19.8383994140625,51.211069921875,19.4766994140625C50.767369921875,19.1404994140625,50.466969921875,18.650599414062498,50.369569921875,18.1041994140625L49.337069921875,23.9349994140625L47.162469921875,23.9349994140625L49.384269921875,11.3834294140625L51.558069921875,11.3834294140625L51.234169921875,13.1480194140625C51.548269921875004,12.5798694140625,52.012169921875,12.107719414062501,52.575969921875,11.7823794140625C53.165469921875,11.441149414062501,53.837369921874995,11.2660994140625,54.519269921875,11.2760194140625ZM52.622269921875,18.0888994140625C53.265169921875,18.0983994140625,53.887869921875,17.8653994140625,54.365069921875005,17.4367394140625C54.880669921875,16.961479414062502,55.217969921874996,16.3254994140625,55.321269921875,15.6337894140625C55.350469921875,15.4407494140625,55.365969921875,15.245909414062499,55.367569921875,15.0507094140625C55.400769921874996,14.536459414062499,55.219469921875,14.031329414062501,54.866369921875,13.6543794140625C54.491669921875,13.3121594140625,53.993769921875,13.1353494140625,53.485969921875,13.1642194140625C52.840969921875,13.1591694140625,52.218169921875,13.3977094140625,51.743169921875,13.831689414062499C51.224169921875,14.304419414062501,50.886269921875,14.9416494140625,50.786869921875,15.6346394140625C50.756969921875,15.8172894140625,50.741569921875,16.0019894140625,50.740569921875,16.1870394140625C50.711669921875,16.7032394140625,50.898669921875,17.2083594140625,51.257269921875,17.5825094140625C51.624169921875,17.9287994140625,52.116969921875,18.1115994140625,52.622269921875,18.0888994140625ZM61.290069921875,16.9218494140625C61.266869921875,17.0431994140625,61.256569921875,17.1666294140625,61.259269921875,17.290119414062502C61.234569921875,17.505229414062498,61.314869921875,17.719099414062498,61.475169921875,17.865499414062498C61.689269921874995,17.9907994140625,61.937069921875,18.0470994140625,62.184569921874996,18.026599414062503L63.032869921875005,18.026599414062503L62.693569921874996,19.8841994140625L61.551369921875,19.8841994140625Q60.332969921875005,19.8841994140625,59.685169921875,19.3939994140625Q59.037469921875,18.903799414062497,59.037469921875,17.782799414062502C59.039769921875,17.4839294140625,59.070769921875,17.1859194140625,59.129969921875,16.892869414062503L59.777769921875,13.210249414062499L58.590969921875,13.210249414062499L58.914869921874995,11.384279414062501L60.102469921875,11.384279414062501L60.472669921874996,9.2821194140625L62.662769921875,9.2821194140625L62.292569921875,11.384279414062501L64.174169921875,11.384279414062501L63.850269921875,13.210249414062499L61.953269921875,13.210249414062499L61.290069921875,16.9218494140625ZM66.102069921875,9.1576594140625C66.094569921875,8.7755394140625,66.258469921875,8.4099474140625,66.549369921875,8.1602804140625C66.859969921875,7.8897024140625,67.262569921875,7.7470423140625,67.675269921875,7.7613294040625C67.974469921875,7.7443229140625,68.269169921875,7.8402117140625,68.500369921875,8.0298534140625C68.699569921875,8.2067774140625,68.809369921875,8.4625554140625,68.800269921875,8.7280174140625C68.809369921875,9.1066094140625,68.648169921875,9.4694794140625,68.360669921875,9.7177194140625C68.051369921875,9.9845394140625,67.651669921875,10.1243994140625,67.242569921875,10.1089994140625C66.93966992187501,10.1274994140625,66.640569921875,10.034669414062499,66.40196992187501,9.848149414062501C66.202369921875,9.6751894140625,66.092169921875,9.4216694140625,66.102069921875,9.1585094140625L66.102069921875,9.1576594140625ZM68.107069921875,11.3825794140625L66.595669921875,19.8841994140625L64.421869921875,19.8841994140625L65.933269921875,11.3834294140625L68.107069921875,11.3825794140625ZM80.970069921875,11.2598194140625Q82.296369921875,11.2598194140625,83.028969921875,11.973329414062501Q83.76156992187501,12.6868394140625,83.76156992187501,14.0217894140625C83.763169921875,14.3303294140625,83.737369921875,14.6384194140625,83.684469921875,14.9424394140625L82.805369921875,19.8841994140625L80.630669921875,19.8841994140625L81.478969921875,15.1888094140625C81.508769921875,15.016469414062499,81.524269921875,14.8419694140625,81.52526992187501,14.6670994140625C81.553369921875,14.2494494140625,81.40196992187501,13.8395494140625,81.108869921875,13.5392994140625C80.789469921875,13.263459414062499,80.374269921875,13.1229994140625,79.952069921875,13.1480194140625C79.39006992187501,13.1320394140625,78.842469921875,13.326429414062499,78.41746992187501,13.692739414062501C77.967569921875,14.1186294140625,77.676569921875,14.684069414062499,77.59236992187499,15.296219414062499L76.774969921875,19.8841994140625L74.600269921875,19.8841994140625L75.44856992187499,15.1888094140625C75.478369921875,15.016469414062499,75.493869921875,14.8419694140625,75.49476992187499,14.6670994140625C75.522869921875,14.2494494140625,75.371569921875,13.8395494140625,75.07836992187501,13.5392994140625C74.75906992187501,13.263459414062499,74.34376992187501,13.1229994140625,73.92166992187501,13.1480194140625C73.351269921875,13.1346694140625,72.797169921875,13.337639414062501,72.371569921875,13.7157594140625C71.91256992187499,14.1568294140625,71.620969921875,14.7423394140625,71.546469921875,15.3729394140625L71.546469921875,15.296219414062499L70.74446992187501,19.8841994140625L68.55436992187501,19.8841994140625L70.06586992187499,11.3834294140625L72.24046992187499,11.3834294140625L71.962069921875,12.9792294140625C72.26846992187501,12.449219414062501,72.713469921875,12.0117394140625,73.249869921875,11.7133294140625C73.793869921875,11.4104794140625,74.40796992187501,11.2544294140625,75.03126992187501,11.2606694140625C75.63996992187501,11.2368294140625,76.240269921875,11.4086994140625,76.743169921875,11.7508394140625C77.206669921875,12.095109414062499,77.525369921875,12.5980694140625,77.63776992187499,13.1625094140625C77.998869921875,12.5880594140625,78.496869921875,12.111099414062501,79.087569921875,11.7738494140625C79.657669921875,11.4385094140625,80.307669921875,11.2612994140625,80.970069921875,11.2606694140625L80.970069921875,11.2598194140625ZM86.383569921875,9.1576594140625C86.375969921875,8.7755394140625,86.539969921875,8.4099474140625,86.830869921875,8.1602804140625C87.141469921875,7.8897004140625,87.544069921875,7.7470407140625,87.956669921875,7.7613294040625C88.25596992187499,7.7443237140625,88.550569921875,7.8402125140625,88.781869921875,8.0298534140625C88.980969921875,8.2067774140625,89.090869921875,8.4625544140625,89.08176992187501,8.7280174140625C89.090769921875,9.1066094140625,88.929669921875,9.4694794140625,88.642169921875,9.7177194140625C88.332869921875,9.9845394140625,87.93316992187499,10.1243994140625,87.523969921875,10.1089994140625C87.221169921875,10.1274994140625,86.92206992187499,10.034669414062499,86.683469921875,9.848149414062501C86.483869921875,9.6751994140625,86.373569921875,9.4216694140625,86.383569921875,9.1585094140625L86.383569921875,9.1576594140625ZM88.388569921875,11.3825794140625L86.877069921875,19.8841994140625L84.70246992187501,19.8841994140625L86.213869921875,11.3834294140625L88.388569921875,11.3825794140625ZM92.90836992187499,11.2760194140625Q94.63576992187501,11.2760194140625,95.538069921875,12.0508994140625C96.146169921875,12.5808894140625,96.50166992187499,13.3412394140625,96.517469921875,14.1453994140625L94.389069921875,14.1453994140625C94.396769921875,13.765429414062499,94.232569921875,13.4020994140625,93.941769921875,13.1556894140625C93.591469921875,12.8954794140625,93.159569921875,12.7676694140625,92.72336992187499,12.7950994140625C92.387269921875,12.7794794140625,92.055069921875,12.870859414062501,91.77476992187499,13.0559494140625C91.54106992187499,13.2144894140625,91.404469921875,13.4804594140625,91.412369921875,13.7617894140625C91.409369921875,14.0542194140625,91.582469921875,14.3200794140625,91.851969921875,14.4369394140625C92.289169921875,14.6419794140625,92.746569921875,14.8013894140625,93.216869921875,14.9126094140625C93.711469921875,15.0514794140625,94.197769921875,15.2179694140625,94.673469921875,15.411299414062501C95.046269921875,15.5679794140625,95.378469921875,15.8066794140625,95.64516992187501,16.1094594140625C95.928969921875,16.4484494140625,96.074869921875,16.880959414062502,96.05386992187499,17.321659414062502C96.053669921875,17.5176194140625,96.033069921875,17.7130294140625,95.992169921875,17.9046994140625C95.864869921875,18.5339994140625,95.47906992187501,19.081599414062502,94.92796992187499,19.415299414062503Q94.048869921875,19.990699414062497,92.583669921875,19.990699414062497Q90.902569921875,19.990699414062497,89.891469921875,19.2319994140625C89.223169921875,18.7365994140625,88.835669921875,17.9511994140625,88.850369921875,17.1221794140625L90.978769921875,17.1221794140625C90.935969921875,17.5045394140625,91.10406992187501,17.8800994140625,91.418369921875,18.1041994140625C91.815369921875,18.3710994140625,92.289569921875,18.5004994140625,92.76786992187499,18.4724994140625C93.104769921875,18.4953994140625,93.438669921875,18.397099414062502,93.708669921875,18.1953994140625C93.919769921875,18.0219994140625,94.039069921875,17.7617994140625,94.032569921875,17.4895894140625C94.038069921875,17.277299414062497,93.950869921875,17.073049414062503,93.79356992187499,16.9295294140625C93.621369921875,16.773509414062502,93.419369921875,16.6534994140625,93.199769921875,16.5766094140625Q92.84496992187499,16.4461794140625,92.181769921875,16.2620494140625C91.700169921875,16.132929414062502,91.22646992187501,15.9763794140625,90.762869921875,15.7931994140625C90.405569921875,15.6467694140625,90.088469921875,15.4179894140625,89.837469921875,15.1257194140625C89.569369921875,14.7972894140625,89.432169921875,14.3821894140625,89.451869921875,13.9595594140625C89.452769921875,13.7745094140625,89.46826992187499,13.5898194140625,89.49816992187499,13.407169414062501C89.61546992187499,12.7678994140625,89.999669921875,12.208099414062499,90.55556992187499,11.8667694140625Q91.442369921875,11.2760194140625,92.907569921875,11.2760194140625L92.90836992187499,11.2760194140625ZM109.472869921875,11.2606694140625Q110.799269921875,11.2606694140625,111.531869921875,11.974179414062501Q112.264469921875,12.6876894140625,112.264469921875,14.0226394140625C112.266069921875,14.3311894140625,112.240269921875,14.6392694140625,112.187369921875,14.943299414062501L111.307369921875,19.8841994140625L109.132769921875,19.8841994140625L109.980969921875,15.1888094140625C110.010769921875,15.016469414062499,110.026269921875,14.8419694140625,110.027269921875,14.6670994140625C110.055369921875,14.2494494140625,109.903969921875,13.8395494140625,109.610869921875,13.5392994140625C109.291469921875,13.263459414062499,108.876269921875,13.1229994140625,108.454069921875,13.1480194140625C107.892069921875,13.1320394140625,107.344469921875,13.326429414062499,106.919469921875,13.692739414062501C106.469569921875,14.1186294140625,106.178569921875,14.684069414062499,106.094369921875,15.296219414062499L105.276969921875,19.8841994140625L103.102269921875,19.8841994140625L103.950569921875,15.1888094140625C103.980369921875,15.016469414062499,103.995869921875,14.8419694140625,103.996769921875,14.6670994140625C104.024869921875,14.2494494140625,103.873569921875,13.8395494140625,103.580369921875,13.5392994140625C103.261069921875,13.263459414062499,102.845769921875,13.1229994140625,102.423669921875,13.1480194140625C101.853269921875,13.1346694140625,101.299169921875,13.337639414062501,100.873569921875,13.7157594140625C100.414569921875,14.1568294140625,100.122969921875,14.7423394140625,100.048469921875,15.3729394140625L100.048469921875,15.296219414062499L99.24646992187499,19.8841994140625L97.056369921875,19.8841994140625L98.566969921875,11.3834294140625L100.741669921875,11.3834294140625L100.463169921875,12.9792294140625C100.769569921875,12.449219414062501,101.214669921875,12.0117394140625,101.751069921875,11.7133294140625C102.294969921875,11.4104794140625,102.909069921875,11.2544294140625,103.532369921875,11.2606694140625C104.141169921875,11.2368294140625,104.741469921875,11.4086994140625,105.244369921875,11.7508394140625C105.707769921875,12.095109414062499,106.026469921875,12.5980694140625,106.138869921875,13.1625094140625C106.500069921875,12.5880594140625,106.997969921875,12.111099414062501,107.588669921875,11.7738494140625C108.159069921875,11.4383594140625,108.809469921875,11.2611494140625,109.471969921875,11.2606694140625L109.472869921875,11.2606694140625Z" fill="#FFFFFF" fill-opacity="1"/></g></g><g><g><ellipse cx="13.066848754882812" cy="12.999999046325684" rx="13.066848754882812" ry="12.999999046325684" fill="#FF0420" fill-opacity="1"/></g><g><path d="M9.25418943359375,16.44766296875C8.57431943359375,16.47651296875,7.90343943359375,16.28482296875,7.34257143359375,15.90145296875C6.85066843359375,15.52766296875,6.57562793359375,14.936622968750001,6.60740029359375,14.32163296875C6.61038779359375,14.14512296875,6.62678633359375,13.969082968750001,6.65645373359375,13.79502296875Q6.78390943359375,13.091742968750001,7.01911243359375,12.10780296875Q7.68573943359375,9.42574823075,10.459769433593749,9.42574823075C10.923299433593751,9.41819737875,11.38352943359375,9.50447936875,11.81250943359375,9.67935496875C12.193289433593751,9.82783296875,12.52091943359375,10.08589796875,12.75352943359375,10.42056796875C12.98809943359375,10.76540296875,13.10797943359375,11.17477296875,13.09626943359375,11.590992968750001C13.09290943359375,11.76424296875,13.076509433593749,11.93699296875,13.04721943359375,12.10780296875Q12.90005943359375,12.97581296875,12.69440943359375,13.79502296875Q12.35167943359375,15.13104296875,11.508329433593751,15.794252968750001Q10.66583943359375,16.44766296875,9.25418943359375,16.44766296875ZM9.39149943359375,15.04324296875C9.731019433593751,15.05258296875,10.06226943359375,14.93813296875,10.32287943359375,14.721432968750001C10.61090943359375,14.46155296875,10.80685943359375,14.11606296875,10.88154943359375,13.73642296875Q11.107109433593749,12.82002296875,11.22427943359375,12.13699296875C11.25056943359375,11.99872296875,11.26369943359375,11.85830296875,11.26347943359375,11.71758296875Q11.26347943359375,10.82996296875,10.33230943359375,10.83017296875C9.99003943359375,10.82200296875,9.65616943359375,10.93618296875,9.39127943359375,11.15197296875C9.10856943359375,11.41460296875,8.91642943359375,11.75932296875,8.84225943359375,12.13699296875Q8.66574943359375,12.79040296875,8.48944943359375,13.73642296875C8.46285943359375,13.87133296875,8.44971943359375,14.00853296875,8.45024943359375,14.14602296875Q8.45025943359375,15.04324296875,9.39149943359375,15.04324296875Z" fill="#FFFFFF" fill-opacity="1"/></g><g><path d="M13.54781323046875,16.35008125C13.48472623046875,16.35374125,13.42339113046875,16.32865125,13.38115763046875,16.281881249999998C13.34854687046875,16.22946125,13.33800565046875,16.16637125,13.35181219046875,16.10627125L14.70455623046875,9.76696325C14.71652623046875,9.69701525,14.75482623046875,9.63422525,14.81165623046875,9.59135535C14.86419623046875,9.54822905,14.92991623046875,9.52417818,14.99801623046875,9.52315709L17.60560623046875,9.52315709C18.21952623046875,9.49318785,18.828096230468752,9.64964225,19.35056623046875,9.97176225C19.78760623046875,10.25656525,20.04104623046875,10.74976125,20.01718623046875,11.26899125C20.01624623046875,11.43970125,19.99649623046875,11.60979125,19.95828623046875,11.77621125C19.85018623046875,12.43331125,19.496556230468748,13.02552125,18.968206230468752,13.43424125Q18.23302623046875,13.97065125,16.94883623046875,13.97065125L15.62565623046875,13.97065125L15.17474623046875,16.10648125C15.16275623046875,16.17643125,15.12445623046875,16.23921125,15.06763623046875,16.28209125C15.015156230468751,16.32517125,14.94951623046875,16.34922125,14.88148623046875,16.350291249999998L13.54781323046875,16.35008125ZM17.01802623046875,12.62441125C17.27487623046875,12.63004125,17.52643623046875,12.55124125,17.733706230468748,12.40021125C17.94696623046875,12.24440125,18.09384623046875,12.01479125,18.14541623046875,11.75660125C18.16362623046875,11.66009125,18.17344623046875,11.56219125,18.174766230468748,11.464001249999999C18.18604623046875,11.30340125,18.12497623046875,11.14613125,18.008106230468748,11.03478125C17.84452623046875,10.91459125,17.64196623046875,10.85901125,17.43958623046875,10.87878125L16.26335623046875,10.87878125L15.89084623046875,12.62441125L17.01802623046875,12.62441125Z" fill="#FFFFFF" fill-opacity="1"/></g></g></g></g></svg>