<?xml version="1.0" standalone="no"?><!DOCTYPE svg PUBLIC "-//W3C//DTD SVG 1.1//EN" "http://www.w3.org/Graphics/SVG/1.1/DTD/svg11.dtd"><svg t="1686794273385" class="icon" viewBox="0 0 1024 1024" version="1.1" xmlns="http://www.w3.org/2000/svg" p-id="21114" xmlns:xlink="http://www.w3.org/1999/xlink" width="128" height="128"><path d="M512 1024c282.752 0 512-229.248 512-512S794.752 0 512 0 0 229.248 0 512s229.248 512 512 512z" fill="#FF0420" p-id="21115" data-spm-anchor-id="a313x.7781069.0.i15" class=""></path><path d="M362.709333 647.978667c-30.506667 0-55.466667-7.168-74.965333-21.504-19.242667-14.506667-28.885333-35.413333-28.885333-62.250667 0-5.717333 0.64-12.501333 1.877333-20.693333 3.242667-18.432 7.978667-40.533333 14.08-66.56 17.450667-70.442667 62.506667-105.685333 134.997333-105.685334 19.626667 0 37.461333 3.285333 53.034667 10.069334 15.573333 6.314667 27.861333 16.170667 36.864 29.269333 9.002667 12.885333 13.525333 28.245333 13.525333 46.08 0 5.333333-0.597333 12.074667-1.834666 20.266667a831.061333 831.061333 0 0 1-13.952 66.56c-8.96 35.029333-24.32 61.44-46.506667 78.848-21.888 17.194667-51.370667 25.6-88.234667 25.6z m5.546667-55.296c14.336 0 26.410667-4.266667 36.437333-12.672 10.24-8.405333 17.621333-21.333333 21.930667-38.912 5.930667-24.192 10.410667-45.056 13.482667-63.104 1.024-5.333333 1.664-10.837333 1.664-16.597334 0-23.338667-12.074667-34.986667-36.48-34.986666-14.336 0-26.624 4.266667-36.864 12.672-10.026667 8.405333-17.194667 21.333333-21.504 38.912-4.693333 17.194667-9.216 38.101333-13.909334 63.104-1.024 5.12-1.621333 10.410667-1.621333 16.170666-0.213333 23.765333 12.288 35.413333 36.864 35.413334zM531.072 644.266667c-2.858667 0-4.906667-0.768-6.570667-2.602667a9.984 9.984 0 0 1-1.237333-6.997333l53.077333-249.856a10.24 10.24 0 0 1 4.266667-6.954667 11.264 11.264 0 0 1 7.381333-2.645333h102.186667c28.501333 0 51.2 5.930667 68.437333 17.578666 17.365333 11.904 26.197333 28.885333 26.197334 51.2 0 6.4-0.853333 13.141333-2.261334 20.053334-6.357333 29.525333-19.242667 51.2-38.912 65.365333-19.242667 14.122667-45.653333 21.12-79.232 21.12h-51.84l-17.621333 84.138667a11.008 11.008 0 0 1-4.266667 6.997333 11.264 11.264 0 0 1-7.381333 2.645333h-52.224z m135.978667-146.773334c10.837333 0 20.053333-2.901333 28.032-8.832a42.112 42.112 0 0 0 16.213333-25.386666c0.810667-4.309333 1.237333-8.192 1.237333-11.52 0-7.338667-2.261333-13.056-6.570666-16.938667-4.266667-4.138667-11.904-6.186667-22.314667-6.186667h-46.08l-14.549333 68.821334h44.032z" fill="#FFFFFF" p-id="21116" data-spm-anchor-id="a313x.7781069.0.i16" class=""></path></svg>