<svg xmlns="http://www.w3.org/2000/svg" xmlns:xlink="http://www.w3.org/1999/xlink" fill="none" version="1.1" width="40" height="40" viewBox="0 0 40 40"><defs><clipPath id="master_svg0_238_36630"><rect x="0" y="0" width="40" height="40" rx="0"/></clipPath><linearGradient x1="0.5" y1="0" x2="0.5" y2="1" id="master_svg1_128_01624"><stop offset="0%" stop-color="#2D48FF" stop-opacity="1"/><stop offset="100%" stop-color="#3DBAFF" stop-opacity="1"/></linearGradient></defs><g clip-path="url(#master_svg0_238_36630)"><g><path d="M9.35056,16.4003L1.6363,16.4003C0.779971,16.4003,0,17.246299999999998,0,18.3731L0,38L10.9087,38L10.9087,18.2777C10.9087,17.246299999999998,10.2069,16.4003,9.35056,16.4003ZM23.89,11.00036L16.1812,11.00036C15.3231,11.00036,14.5449,11.77255,14.5449,12.8003L14.5449,38L25.4481,38L25.4481,12.7139C25.5263,11.77435,24.8245,11.00036,23.89,11.00036ZM38.4349,2.000468001L30.7261,2.000468001C29.868,2.000468001,29.0898,2.745659,29.0898,3.73925L29.0898,38L39.9931,38L39.9931,3.65645C40.0793,2.753908,39.3504,1.9791908,38.4349,2.000468001Z" fill="url(#master_svg1_128_01624)" fill-opacity="1"/></g></g></svg>