<svg xmlns="http://www.w3.org/2000/svg" xmlns:xlink="http://www.w3.org/1999/xlink" fill="none" version="1.1" width="40" height="40" viewBox="0 0 40 40"><defs><clipPath id="master_svg0_238_36633"><rect x="0" y="0" width="40" height="40" rx="0"/></clipPath><linearGradient x1="0.5" y1="0" x2="0.5" y2="1" id="master_svg1_128_01624"><stop offset="0%" stop-color="#2D48FF" stop-opacity="1"/><stop offset="100%" stop-color="#3DBAFF" stop-opacity="1"/></linearGradient></defs><g clip-path="url(#master_svg0_238_36633)"><g><path d="M34.3418,15.625L31.1273,15.625L31.1273,10C31.1273,4.125,26.0582,0,20,0C13.9418,0,8.87273,4.125,8.87273,10L8.87273,15.375L5.65818,15.375C4.05091,15.375,3,16.6875,3,17.9375L3,37.4375C3,39,4.29818,40,5.65818,40L34.3418,40C35.9491,40,37,38.6875,37,37.4375L37,18.1875C37,16.6875,35.9491,15.625,34.3418,15.625ZM21.5455,28.5625L21.5455,32.875Q21.5455,33.125,21.2982,33.125L18.9491,33.125Q18.7018,33.125,18.7018,32.875L18.7018,28.5625C17.4036,28.0625,16.6,27.0625,16.6,25.75C16.6,24,18.1455,22.4375,20,22.4375C21.8545,22.4375,23.4,23.9375,23.4,25.75C23.4,27.0625,22.5964,28.0625,21.5455,28.5625ZM27.1091,15.625L13.5091,15.625L13.5091,9.875C13.5091,6.875,16.6618,4.375,20.3091,4.375C23.9564,4.375,27.1091,6.875,27.1091,9.875L27.1091,15.625Z" fill="url(#master_svg1_128_01624)" fill-opacity="1"/></g></g></svg>