<svg xmlns="http://www.w3.org/2000/svg" xmlns:xlink="http://www.w3.org/1999/xlink" fill="none" version="1.1" width="40" height="40" viewBox="0 0 40 40"><defs><clipPath id="master_svg0_238_36641"><rect x="0" y="0" width="40" height="40" rx="0"/></clipPath><linearGradient x1="0.5" y1="0" x2="0.5" y2="1" id="master_svg1_128_01624"><stop offset="0%" stop-color="#2D48FF" stop-opacity="1"/><stop offset="100%" stop-color="#3DBAFF" stop-opacity="1"/></linearGradient></defs><g clip-path="url(#master_svg0_238_36641)"><g><path d="M19.9012,39C19.2669,38.9845,18.6516,38.7758,18.1349,38.4007L1.64378,30.0001C1.05716,29.7996,0.662405,29.0107,0.662405,28.3997C0.662405,27.824,1.03828,27.2108,1.64341,26.7992L6.15893,24.4003L1.64378,21.9996C1.05716,21.801,0.662781,21.0116,0.662781,20.3992C0.662781,19.8159,1.02953,19.2183,1.64378,18.8004L6.94468,15.9997L0.662405,12.8005C0.111278,12.6121,-0.136223,11.8544,0.0749026,10.99915C0.286153,10.98581,0.454563,10.81424,0.467654,10.59901L18.1349,1.598846C19.2547,0.800385,20.745,0.800385,21.8649,1.598846L39.5323,10.59876C39.9336,10.80405,40.1134,11.629,39.9251,12.4001C39.9251,12.5228,39.8501,12.5698,39.7473,12.635C39.6692,12.6808,39.597,12.7364,39.5324,12.8005L33.25,15.9996L38.3538,18.8003C38.9404,18.999,39.3348,19.7874,39.3348,20.3991C39.3348,20.9834,38.9681,21.5817,38.3538,21.9995L33.8383,24.4002L38.3538,26.7991C38.9404,26.9994,39.3348,27.7885,39.3348,28.3995C39.3348,28.9838,38.9681,29.5821,38.3538,30L21.8649,38.4006C21.2768,38.7803,20.5974,38.9877,19.9012,39ZM9.30119,25.7998L4.39292,28.3997L19.5086,36.1992C19.8764,36.4007,20.3189,36.4007,20.6867,36.1992L35.8024,28.3997L31.0914,25.7998L22.0605,30.4002C21.4726,30.7804,20.7931,30.9877,20.0969,30.9995C19.4626,30.9836,18.8475,30.7749,18.3305,30.4002L9.30119,25.7998ZM9.88944,17.3992L3.99992,20.3992L8.90806,23.0007L11.8527,24.4002L19.3127,28.2004C19.6805,28.3996,20.1214,28.3996,20.4892,28.2004L27.9493,24.4002L30.8939,23.0007L35.8021,20.3992L30.5012,17.3992L22.0601,21.8004C20.9408,22.6007,19.4494,22.6007,18.3301,21.8004L9.88944,17.3992Z" fill="url(#master_svg1_128_01624)" fill-opacity="1"/></g></g></svg>