<svg xmlns="http://www.w3.org/2000/svg" xmlns:xlink="http://www.w3.org/1999/xlink" fill="none" version="1.1" width="133" height="26" viewBox="0 0 133 26"><defs><clipPath id="master_svg0_213_18033"><rect x="0" y="0" width="133" height="26" rx="0"/></clipPath></defs><g clip-path="url(#master_svg0_213_18033)"><g><path d="M45.8859462890625,13.002338671875L32.8692462890625,0.004638671875L32.8692462890625,9.523618671875L19.9449462890625,19.054138671875L32.8692462890625,19.063138671875L32.8692462890625,25.999938671875L45.8859462890625,13.002338671875Z" fill-rule="evenodd" fill="#4E529A" fill-opacity="1"/></g><g><path d="M0,12.9976L13.0167,25.9953L13.0167,16.5771L25.8464,7.04026L13.0167,7.03147L13.0167,0L0,12.9976Z" fill-rule="evenodd" fill="#8C8DFC" fill-opacity="1"/></g><g><path d="M65.9236734375,20.65627421875L55.9365234375,20.65627421875L55.9365234375,17.78951421875L61.6539234375,11.418804218750001L56.0837484375,11.418804218750001L56.0837484375,8.60107421875L65.8255234375,8.60107421875L65.8255234375,11.320884218749999L59.9362234375,17.81399421875L65.9236734375,17.81399421875L65.9236734375,20.65627421875Z" fill="#FFFFFF" fill-opacity="0.8980392217636108"/></g><g><path d="M79.55337177734376,8.60111390625L74.71935177734375,13.67320390625L79.65157177734375,20.65630390625L75.65186177734375,20.65630390625L72.46184177734375,16.04990390625L71.11224177734375,17.47100390625L71.11224177734375,20.65630390625L67.84857177734375,20.65630390625L67.84857177734375,2.91650390625L71.11224177734375,2.91650390625L71.11224177734375,13.08510390625L75.28375177734375,8.60111390625L79.55337177734376,8.60111390625Z" fill="#FFFFFF" fill-opacity="0.8980392217636108"/></g><g><path d="M93.74810908203125,7.42495390625L90.70529908203125,8.356133906250001C90.59088908203125,7.73534390625,90.27979908203125,7.17183390625,89.77297908203126,6.66541390625C89.26615908203125,6.15899390625,88.52105908203126,5.90587390625,87.53957908203125,5.90587390625C86.73868908203124,5.90587390625,86.08436908203124,6.12638390625,85.57659908203125,6.56740390625C85.06978908203125,6.99216390625,84.81636908203124,7.50670390625,84.81636908203124,8.11104390625C84.81636908203124,9.172853906250001,85.44610908203126,9.82624390625,86.70559908203126,10.07123390625L89.13472908203124,10.53682390625C90.67220908203124,10.83086390625,91.86640908203125,11.44342390625,92.71740908203125,12.37450390625C93.56840908203125,13.30560390625,93.99390908203125,14.40000390625,93.99390908203125,15.65780390625C93.99390908203125,17.095303906250003,93.42090908203124,18.35310390625,92.27590908203125,19.43120390625C91.14690908203124,20.49300390625,89.62546908203124,21.02380390625,87.71166908203125,21.02380390625C86.61576908203125,21.02380390625,85.62577908203124,20.86050390625,84.74261908203125,20.53380390625C83.85909908203125,20.20710390625,83.14746908203125,19.77420390625,82.60764908203124,19.23520390625C82.06782908203125,18.67980390625,81.64242508203125,18.09990390625,81.33162008203125,17.49550390625C81.03717908203124,16.874703906249998,80.85723538203125,16.237703906249997,80.79180908203125,15.58430390625L83.93275908203125,14.75120390625C84.01454908203125,15.68230390625,84.37479908203125,16.45820390625,85.01210908203124,17.07900390625C85.66642908203124,17.69970390625,86.57510908203125,18.010103906250002,87.73625908203125,18.010103906250002C88.61939908203125,18.010103906250002,89.30681908203125,17.81400390625,89.79755908203126,17.422003906249998C90.30438908203125,17.02990390625,90.55778908203125,16.51540390625,90.55778908203125,15.87830390625C90.55778908203125,15.37190390625,90.36962908203125,14.93910390625,89.99328908203125,14.57970390625C89.63397908203125,14.20400390625,89.11865908203126,13.95090390625,88.44825908203126,13.82010390625L86.01816908203125,13.33010390625C84.61119908203125,13.03600390625,83.49921908203125,12.45616390625,82.68121908203125,11.59039390625C81.86330908203125,10.724623906249999,81.45436108203126,9.64656390625,81.45436108203126,8.356133906250001C81.45436108203126,6.82061390625,82.04324908203125,5.53017390625,83.22112908203125,4.48472390625C84.41545908203125,3.43927590625,85.84703908203124,2.91650390625,87.51498908203125,2.91650390625C88.51349908203125,2.91650390625,89.40515908203125,3.05534890625,90.18996908203125,3.33303990625C90.97480908203124,3.61072990625,91.60550908203125,3.9864339062500003,92.07920908203126,4.4601539062499995C92.55390908203125,4.917613906250001,92.92170908203124,5.39133390625,93.18360908203125,5.88130390625C93.44550908203125,6.37137390625,93.63370908203125,6.8859239062499995,93.74810908203125,7.42495390625Z" fill="#FFFFFF" fill-opacity="0.8980392217636108"/></g><g><path d="M99.4913934375,25.40977421875L96.0316034375,25.40977421875L98.8777234375,19.137174218749998L93.7490234375,8.60107421875L97.4054934375,8.60107421875L100.6203834375,15.657784218749999L103.5894234375,8.60107421875L107.0738234375,8.60107421875L99.4913934375,25.40977421875Z" fill="#FFFFFF" fill-opacity="0.8980392217636108"/></g><g><path d="M111.57844208984375,13.722244843750001L111.57844208984375,20.65641484375L108.31439208984375,20.65641484375L108.31439208984375,8.60123584375L111.48010208984375,8.60123584375L111.48010208984375,10.09592484375C111.82335208984375,9.50784484375,112.31408208984375,9.05860184375,112.95234208984375,8.74820884375C113.59059208984375,8.43791084375,114.26099208984375,8.28271484375,114.96448208984376,8.28271484375C116.38754208984375,8.28271484375,117.46737208984375,8.73195284375,118.20396208984376,9.63033484375C118.95659208984375,10.51245484375,119.33299208984374,11.65582484375,119.33299208984374,13.06072484375L119.33299208984374,20.65641484375L116.06889208984376,20.65641484375L116.06889208984376,13.62423484375C116.06889208984376,12.905524843750001,115.88072208984374,12.325574843750001,115.50439208984375,11.88455484375C115.14413208984375,11.44354484375,114.58815208984375,11.22303484375,113.83549208984375,11.22303484375C113.14901208984375,11.22303484375,112.60059208984374,11.45989484375,112.19211208984375,11.93361484375C111.78268208984375,12.40723484375,111.57844208984375,13.00354484375,111.57844208984375,13.722244843750001Z" fill="#FFFFFF" fill-opacity="0.8980392217636108"/></g><g><path d="M127.3313544921875,11.2472484375C126.4642844921875,11.2472484375,125.7361944921875,11.5494184375,125.1480644921875,12.1538584375C124.5589844921875,12.758198437499999,124.2639744921875,13.5831384375,124.2639744921875,14.6285884375C124.2639744921875,15.6740384375,124.5589844921875,16.5071084375,125.1480644921875,17.127798437499997C125.7532144921875,17.732228437499998,126.4888644921875,18.034398437500002,127.3559444921875,18.034398437500002C128.1246744921875,18.034398437500002,128.7383444921875,17.838378437499998,129.1969344921875,17.4463184375C129.6545844921875,17.0380084375,129.9656744921875,16.556068437500002,130.1292544921875,16.0006884375L132.9999544921875,16.9563484375C132.7058544921875,18.0671084375,132.0676544921875,19.0226984375,131.0861544921875,19.8230984375C130.1046644921875,20.6234984375,128.8612644921875,21.023698437500002,127.3559444921875,21.023698437500002C125.5565444921875,21.023698437500002,124.0436544921875,20.4192984375,122.8163244921875,19.2105984375C121.6060174921875,17.9854384375,121.0008544921875,16.4580484375,121.0008544921875,14.6285884375C121.0008544921875,12.7826784375,121.5975024921875,11.2553784375,122.7917444921875,10.0466084375C124.0029944921875,8.8378324375,125.4913044921875,8.2333984375,127.2576044921875,8.2333984375C128.7960244921875,8.2333984375,130.0555044921875,8.633675437499999,131.0369544921875,9.4340384375C132.0184544921875,10.2181584375,132.6482544921875,11.1737184375,132.9261544921875,12.3008284375L130.0063244921875,13.2809684375C129.6139344921875,11.9251284375,128.7222644921875,11.2472484375,127.3313544921875,11.2472484375Z" fill="#FFFFFF" fill-opacity="0.8980392217636108"/></g></g></svg>