<svg xmlns="http://www.w3.org/2000/svg" xmlns:xlink="http://www.w3.org/1999/xlink" fill="none" version="1.1" width="30" height="30" viewBox="0 0 30 30"><defs><clipPath id="master_svg0_213_30984"><rect x="0" y="0" width="30" height="30" rx="0"/></clipPath></defs><g clip-path="url(#master_svg0_213_30984)"><g><path d="M15,1.875C7.76342,1.875,1.875,7.76252,1.875,15C1.875,22.2375,7.76252,28.125,15,28.125C22.2366,28.125,28.125,22.2375,28.125,15C28.125,7.76252,22.2375,1.875,15,1.875Z" fill="#1C1D40" fill-opacity="0.20000000298023224"/><path d="M27.5522,20.2992Q28.625,17.767400000000002,28.625,15Q28.625,12.2326,27.5524,9.700849999999999Q26.5168,7.25661,24.6301,5.36989Q22.7434,3.4831700000000003,20.2991,2.447623Q17.767400000000002,1.3749980000000002,15,1.3749980000000002Q12.2329,1.375,9.701229999999999,2.447626Q7.25703,3.48318,5.37024,5.36988Q3.4834,7.25663,2.44776,9.70084Q1.375,12.2327,1.375,15Q1.375,17.767400000000002,2.4476240000000002,20.2991Q3.4831700000000003,22.7434,5.36989,24.6301Q7.25662,26.5168,9.700849999999999,27.5524Q12.2326,28.625,15,28.625Q17.7671,28.625,20.2988,27.5524Q22.743,26.5168,24.6298,24.6301Q26.5166,22.7434,27.5522,20.2992ZM26.6316,10.09095Q27.625,12.4357,27.625,15Q27.625,17.5642,26.6315,19.909Q25.6718,22.1739,23.9227,23.923Q22.1736,25.672,19.9087,26.6316Q17.564,27.625,15,27.625Q12.4357,27.625,10.09095,26.6316Q7.82603,25.672,6.077,23.923Q4.3279700000000005,22.174,3.3684000000000003,19.909Q2.375,17.5643,2.375,15Q2.375,12.4358,3.36852,10.09097Q4.32818,7.82607,6.07733,6.077Q7.82643,4.32799,10.09134,3.3683899999999998Q12.436,2.375,15,2.374998Q17.5643,2.374999,19.909,3.3684000000000003Q22.174,4.3279700000000005,23.923,6.077Q25.672,7.82602,26.6316,10.09095Z" fill-rule="evenodd" fill="#CCCCCC" fill-opacity="0.6000000238418579"/></g><g><path d="M20.3540921875,19.042774296875002C20.7196921875,19.410254296875,20.7187921875,20.002754296875,20.352192187500002,20.368354296874998C20.1693921875,20.550254296875,19.9303921875,20.642154296875,19.690392187500002,20.642154296875C19.449392187500003,20.642154296875,19.2094221875,20.550254296875,19.0265921875,20.366554296875L14.995322187500001,16.323074296875L10.9509621875,20.324354296875C10.7681721875,20.504354296875,10.5299921875,20.595254296874998,10.2918731875,20.595254296874998C10.0500201875,20.595254296874998,9.8090761875,20.502454296875,9.6253301875,20.316854296875C9.2615684875,19.948354296875,9.2643904875,19.355884296875,9.6328391875,18.991214296875L13.6725221875,14.995584296875L9.6478081875,10.957774296875C9.2821815875,10.591184296875,9.2831392875,9.997769296875,9.6496731875,9.632142296875C10.0162571875,9.265559196875,10.6087221875,9.267474196875,10.9753021875,9.634007296875L15.0056021875,13.676504296874999L19.0499721875,9.675282296875C19.417492187500002,9.310613896875,20.0117921875,9.314342896875,20.3755921875,9.682792296875C20.7402921875,10.051240296875,20.736492187499998,10.644654296875,20.3680921875,11.008424296874999L16.3284621875,15.004004296875L20.3540921875,19.042774296875002Z" fill="#CCCCCC" fill-opacity="0.6000000238418579"/></g></g></svg>