<svg xmlns="http://www.w3.org/2000/svg" xmlns:xlink="http://www.w3.org/1999/xlink" fill="none" version="1.1" width="100" height="100" viewBox="0 0 100 100"><defs><clipPath id="master_svg0_238_36624"><rect x="0" y="0" width="100" height="100" rx="0"/></clipPath><linearGradient x1="0.5" y1="0" x2="0.5" y2="1" id="master_svg1_128_01624"><stop offset="0%" stop-color="#2D48FF" stop-opacity="1"/><stop offset="100%" stop-color="#3DBAFF" stop-opacity="1"/></linearGradient></defs><g clip-path="url(#master_svg0_238_36624)"><g><path d="M49.61755859375,9.0900732421875C72.34955859375,9.0900732421875,90.84805859375,27.5885732421875,90.84805859375,50.3200732421875C90.84805859375,73.0515732421875,72.34955859375,91.5500732421875,49.61805859375,91.5500732421875C26.88605859375,91.5500732421875,8.38755859375,73.0520732421875,8.38755859375,50.3200732421875C8.38755859375,27.5880732421875,26.88605859375,9.0900732421875,49.61755859375,9.0900732421875ZM49.61755859375,3.2000732421875C23.59605859375,3.2000728696585,2.49755859375,24.2985732421875,2.49755859375,50.3200732421875C2.49755859375,76.3415732421875,23.59605859375,97.4405732421875,49.61755859375,97.4405732421875C75.64005859375,97.4405732421875,96.73805859375,76.3425732421875,96.73805859375,50.3205732421875C96.73805859375,24.2985732421875,75.63955859375,3.2000728696585,49.61755859375,3.2000732421875L49.61755859375,3.2000732421875ZM49.61755859375,14.9800732421875C30.09555859375,14.9800732421875,14.27755859375,30.7980732421875,14.27755859375,50.3200732421875C14.27755859375,69.8370732421875,30.09555859375,85.6605732421875,49.61755859375,85.6605732421875C69.13405859375,85.6605732421875,84.95755859375,69.8370732421875,84.95755859375,50.3205732421875C84.95755859375,30.7980732421875,69.13405859375,14.9805732421875,49.61755859375,14.9800732421875L49.61755859375,14.9800732421875ZM62.46755859375,68.5140732421875C60.14955859375,71.1140732421875,56.80205859375,72.6440732421875,52.42455859375,73.1040732421875L52.42455859375,79.7705732421875L46.84505859375,79.7705732421875L46.84505859375,73.1385732421875C39.54605859375,72.3905732421875,35.03055859375,68.1455732421875,33.28755859375,60.4150732421875L41.91555859375,58.1660732421875C42.71555859375,63.0260732421875,45.36105859375,65.45407324218749,49.85355859375,65.45407324218749C51.95305859375,65.45407324218749,53.50605859375,64.93607324218749,54.49555859375,63.8950732421875C55.48505859375,62.8540732421875,55.97955859375,61.6000732421875,55.97955859375,60.1275732421875C55.97955859375,58.6030732421875,55.48455859375,57.4465732421875,54.49555859375,56.6645732421875C53.50605859375,55.8765732421875,51.30305859375,54.8815732421875,47.89205859375,53.6735732421875C44.82655859375,52.6095732421875,42.42755859375,51.5625732421875,40.70205859375,50.5160732421875C38.97655859375,49.4805732421875,37.57305859375,48.0250732421875,36.49705859375,46.1560732421875C35.42205859375,44.2805732421875,34.88105859375,42.0945732421875,34.88105859375,39.6100732421875C34.88105859375,36.3485732421875,35.84705859375,33.4090732421875,37.76855859375,30.7975732421875C39.68955859375,28.1925732421875,42.71505859375,26.5985732421875,46.84505859375,26.0175732421875L46.84505859375,20.8700732421875L52.42505859375,20.8700732421875L52.42505859375,26.0180732421875C58.66005859375,26.7660732421875,62.69755859375,30.2920732421875,64.53255859375,36.6015732421875L56.84805859375,39.7535732421875C55.34655859375,35.4285732421875,53.03455859375,33.2655732421875,49.89405859375,33.2655732421875C48.31755859375,33.2655732421875,47.05205859375,33.748573242187504,46.10355859375,34.7150732421875C45.14855859375,35.6815732421875,44.67105859375,36.8550732421875,44.67105859375,38.2295732421875C44.67105859375,39.6330732421875,45.13105859375,40.7085732421875,46.05155859375,41.4620732421875C46.96655859375,42.2100732421875,48.93905859375,43.1360732421875,51.95305859375,44.2460732421875C55.26605859375,45.4545732421875,57.86605859375,46.5990732421875,59.74705859375,47.6745732421875C61.63355859375,48.7500732421875,63.13505859375,50.2395732421875,64.26205859375,52.1320732421875C65.38405859375,54.0305732421875,65.94755859375,56.2450732421875,65.94755859375,58.7815732421875C65.94755859375,62.6755732421875,64.78555859375,65.9195732421875,62.46755859375,68.5140732421875Z" fill="url(#master_svg1_128_01624)" fill-opacity="1"/></g></g></svg>