<svg xmlns="http://www.w3.org/2000/svg" xmlns:xlink="http://www.w3.org/1999/xlink" fill="none" version="1.1" width="100" height="100" viewBox="0 0 100 100"><defs><linearGradient x1="0" y1="0.5" x2="1" y2="0.5" id="master_svg0_128_02335"><stop offset="0%" stop-color="#2D48FF" stop-opacity="1"/><stop offset="100%" stop-color="#3DBAFF" stop-opacity="1"/></linearGradient><linearGradient x1="0" y1="0.5" x2="1" y2="0.5" id="master_svg1_128_02335"><stop offset="0%" stop-color="#2D48FF" stop-opacity="1"/><stop offset="100%" stop-color="#3DBAFF" stop-opacity="1"/></linearGradient></defs><g><g><path d="M96.7019,59.74584C92.4015,62.60174,76.3513,72.4147,57.8462,72.6934Q45.326,72.89789999999999,38.9601,70.0915L44.3356,55.76244Q44.6996,54.684508,43.362,55.130545Q42.0499,55.576589,0.493773,69.5216Q-0.318896,69.7756,0.205952,70.3207C0.646147,70.8287,22.9607,95.46629999999999,26.8293,99.72229999999999C27.1933,100.1188,27.4981,100.0878,27.6843,99.648C28.6832,97.32480000000001,31.9254,89.8103,33.2883,86.3534C78.6708,92.3069,94.5094,65.724,97.3537,60.01222C97.6923,59.33697,97.4299,59.23785,96.7019,59.74584Z" fill="url(#master_svg0_128_02335)" fill-opacity="1"/></g><g><path d="M99.8483,29.3853L72.9205,0.352841Q72.0186,-0.420049,71.5634,0.500058C70.3866,3.18064,67.2859,10.1612,65.9631,13.4552C20.0614,7.57874,3.51817,33.2865,0.194077,39.5984C-0.261164,40.4633,0.0910003,40.5431,1.18185,39.8622C6.23242,36.6418,22.2774,27.4469,40.6759,27.1647Q53.5772,26.9807,60.1223,29.7901L54.4877,44.3891Q54.1355,45.3215,55.4926,44.8308C62.7249,42.2422,98.2077,30.8758,99.393,30.4403Q100.303,30.1336,99.8483,29.3853Z" fill="url(#master_svg1_128_02335)" fill-opacity="1"/></g></g></svg>