<svg xmlns="http://www.w3.org/2000/svg" xmlns:xlink="http://www.w3.org/1999/xlink" fill="none" version="1.1" width="100" height="100" viewBox="0 0 100 100"><defs><clipPath id="master_svg0_238_36617"><rect x="0" y="0" width="100" height="100" rx="0"/></clipPath><linearGradient x1="0.5" y1="0" x2="0.5" y2="1" id="master_svg1_128_02313"><stop offset="0%" stop-color="#2D48FF" stop-opacity="1"/><stop offset="100%" stop-color="#3DBAFF" stop-opacity="1"/></linearGradient></defs><g clip-path="url(#master_svg0_238_36617)"><g><path d="M46.2382,53.3309L3.50387,32.1034C1.57638,30.8758,0,29.117,0,27.0208C0,24.9103,1.39725,22.9792,3.3319,21.9239L3.3319,21.7516L46.2382,1.0481L46.2382,1.22757C47.2915,0.524049,48.6887,0,50.086,0C51.4904,0,52.8948,0.17229,53.941,0.86145L53.941,0.696339L96.6753,21.7516L96.6753,21.9239C98.6027,22.9792,100,24.9103,100,27.0136C100,29.117,98.6027,31.0481,96.6753,32.1034L96.6753,32.2757L53.941,53.3309L53.941,53.1586C52.8948,53.8622,51.4904,54.3862,50.086,54.3862C48.6887,54.3862,47.2843,53.8622,46.2382,53.1586L46.2382,53.3309ZM88.7931,44.9103Q90.0255,43.6827,92.82,43.6827C96.847,43.6827,99.9997,46.8414,99.9997,50.5241C99.9997,52.6346,98.6024,54.9103,96.675,55.9656L53.9407,76.4968L53.9407,76.3245C52.8945,77.0208,51.4901,77.5449,50.0857,77.5449C48.6884,77.5449,47.284,77.0208,46.2379,76.3173L46.2379,76.4968L3.50357,55.262C1.57608,54.2139,0.178834,52.2828,0.178834,50.1795C0.178834,46.6619,2.45026,43.3309,7.35854,43.8622C8.75579,44.0345,10.1602,44.0345,11.2064,44.7308L50.0857,63.6827L88.7931,44.9103ZM88.7931,67.5449Q90.0255,66.3173,92.82,66.3173C96.847,66.3173,99.9997,69.2965,99.9997,72.9864C99.9997,75.0897,98.6024,77.3726,96.675,78.4207L53.9407,98.9519L53.9407,98.7796C52.8945,99.4759,51.4901,100,50.0857,100C48.6884,100,47.284,99.4759,46.2379,98.7796L46.2379,98.9519L3.50357,77.7243C1.57608,76.6691,0.178833,74.738,0.178833,72.6346C0.178833,69.1242,2.45026,65.7933,7.35854,66.3173C8.75579,66.4896,10.1602,66.4896,11.2063,67.1931L50.0857,86.1378L88.7931,67.5449Z" fill-rule="evenodd" fill="url(#master_svg1_128_02313)" fill-opacity="1"/></g></g></svg>